<?xml version="1.0" encoding="UTF-8"?><svg width="57px" height="29px" viewBox="0 0 57 29" version="1.1" xmlns="http://www.w3.org/2000/svg" xmlns:xlink="http://www.w3.org/1999/xlink">        <title>Page 1</title>    <desc>Created with Sketch.</desc>    <defs>        <linearGradient x1="50%" y1="0%" x2="50%" y2="100%" id="linearGradient-1">            <stop stop-color="#FFFFFF" offset="0%"></stop>            <stop stop-color="#000000" offset="100%"></stop>        </linearGradient>        <path d="M37.5859023,7.1754727 L37.5859023,7.74983843 L37.902624,7.74983843 C38.1696311,7.74983843 38.3634625,7.93354475 38.3634625,8.18018749 L38.3634625,8.18018749 C38.3634625,8.26750469 38.3416774,8.34574997 38.3204509,8.40755241 L38.3204509,8.40755241 L33.8952841,21.8130106 C33.8824364,21.8566692 33.8913739,21.9031627 33.9193035,21.9405844 L33.9193035,21.9405844 C33.9438816,21.9717691 33.9746041,21.987645 34.0148228,21.987645 L34.0148228,21.987645 L37.463012,21.987645 C37.5646758,21.987645 37.67807,21.8969258 37.71773,21.7880628 L37.71773,21.7880628 L40.6592762,12.3980618 C40.6838542,12.3011057 40.7760219,12.1423472 40.9637089,12.1423472 L40.9637089,12.1423472 C41.1508373,12.1423472 41.240212,12.3011057 41.2647901,12.3918249 L41.2647901,12.3918249 L44.2337072,21.7784239 C44.2800704,21.8969258 44.392906,21.987645 44.4945698,21.987645 L44.4945698,21.987645 L47.9433176,21.987645 C47.9863292,21.987645 48.0137002,21.9751711 48.0354853,21.9439864 L48.0354853,21.9439864 C48.0662079,21.9031627 48.0723524,21.8407933 48.0628563,21.8186805 L48.0628563,21.8186805 L43.26846,7.28150072 C43.243882,7.22877021 43.1980774,7.1754727 43.004246,7.1754727 L43.004246,7.1754727 L37.5859023,7.1754727 Z" id="path-2"></path>        <path d="M27.1731863,21.8458963 C27.0899561,21.8458963 27.025718,21.7801249 27.025718,21.6962096 L27.025718,8.07869542 C27.025718,7.81674382 26.8195975,7.60808973 26.5648795,7.60808973 L26.2140836,7.60808973 L26.2140836,7.033724 L30.6861723,7.033724 C30.7688439,7.033724 30.8336406,7.10233037 30.8336406,7.18681259 L30.8336406,21.6962096 C30.8336406,21.7801249 30.7688439,21.8458963 30.6861723,21.8458963 L27.1731863,21.8458963 Z" id="path-3"></path>        <path d="M19.8371959,21.8458963 C19.726036,21.8458963 19.5389077,21.7427032 19.4283064,21.5714708 L15.3868923,15.8187415 C15.3377362,15.7438982 15.239424,15.6032835 15.0360965,15.6032835 C14.8763391,15.6032835 14.7137888,15.7155484 14.7137888,15.9684281 L14.7137888,21.6962096 C14.7137888,21.7801249 14.6489921,21.8458963 14.5663205,21.8458963 L11.1516468,21.8458963 C11.0717681,21.8458963 11.0041785,21.7801249 11.0041785,21.6962096 L11.0041785,8.07869542 C11.0041785,7.81674382 10.798058,7.60808973 10.5427814,7.60808973 L10.1590286,7.60808973 L10.1590286,7.033724 L14.5663205,7.033724 C14.6461992,7.033724 14.7137888,7.10233037 14.7137888,7.18681259 L14.7137888,12.0221443 C14.7137888,12.2126545 14.8517611,12.3527023 15.0360965,12.3527023 C15.0886041,12.3527023 15.2578576,12.3339914 15.4053259,12.1094615 L18.7490584,7.31155145 C18.8624526,7.13975202 19.0534911,7.033724 19.1640923,7.033724 L23.0150265,7.033724 C23.0731201,7.033724 23.1071942,7.08702151 23.1161317,7.10233037 C23.1345652,7.13691705 23.1468542,7.19304954 23.1194832,7.23954311 L18.8255855,13.691377 L18.8199996,13.7004489 C18.779781,13.7815292 18.7367694,13.8722483 18.7367694,13.9748744 C18.7367694,14.0468827 18.7613474,14.1495088 18.8501636,14.2680107 C19.1825259,14.7454203 23.9551371,21.5964186 23.9707776,21.6151294 C24.0104377,21.6740968 24.0165822,21.7239924 23.9953557,21.771053 C23.9707776,21.8175465 23.9216215,21.8458963 23.8936919,21.8458963 L19.8371959,21.8458963 Z" id="path-4"></path>    </defs>    <g id="Welcome" stroke="none" stroke-width="1" fill="none" fill-rule="evenodd">        <g id="2017-06-01-KIA_Main" transform="translate(-1401.000000, -2501.000000)">            <g id="Group-16" transform="translate(0.000000, 2220.000000)">                <g id="Page-1" transform="translate(1401.000000, 281.000000)">                    <g id="Fill-6">                        <use fill="url(#linearGradient-1)" xlink:href="#path-2"></use>                        <use fill="#AA0505" xlink:href="#path-2"></use>                    </g>                    <g id="Fill-3">                        <use fill="url(#linearGradient-1)" xlink:href="#path-3"></use>                        <use fill="#AA0505" xlink:href="#path-3"></use>                    </g>                    <path d="M28.5,0 C12.7604358,0 0,6.49242947 0,14.4983326 L0,14.4983326 C0,22.5075705 12.7604358,29 28.5,29 L28.5,29 C44.2390179,29 56.9967226,22.5075705 56.9967226,14.4983326 L56.9967226,14.4983326 C56.9967226,6.49242947 44.2390179,0 28.5,0 Z M3.03538983,14.4983326 C3.03538983,7.32725774 14.4346251,1.51680849 28.4967226,1.51680849 L28.4967226,1.51680849 C42.5615513,1.51680849 53.9613328,7.32725774 53.9613328,14.4983326 L53.9613328,14.4983326 C53.9613328,21.6727423 42.5615513,27.4831915 28.4967226,27.4831915 L28.4967226,27.4831915 C14.4346251,27.4831915 3.03538983,21.6727423 3.03538983,14.4983326 L3.03538983,14.4983326 Z" fill="#A90505"></path>                    <g id="Fill-8">                        <use fill="url(#linearGradient-1)" xlink:href="#path-4"></use>                        <use fill="#AA0505" xlink:href="#path-4"></use>                    </g>                </g>            </g>        </g>    </g></svg>