<?xml version="1.0" encoding="utf-8"?>
<!-- Generator: Adobe Illustrator 22.0.0, SVG Export Plug-In . SVG Version: 6.00 Build 0)  -->
<svg version="1.1" id="Слой_1" xmlns="http://www.w3.org/2000/svg" xmlns:xlink="http://www.w3.org/1999/xlink" x="0px" y="0px"
	 viewBox="0 0 287 74" style="enable-background:new 0 0 287 74;" xml:space="preserve">
<style type="text/css">
	.st0{fill-rule:evenodd;clip-rule:evenodd;fill:#FFFFFF;}
</style>
<rect x="72.1" y="44.4" class="st0" width="142.9" height="1.8"/>
<rect x="224.1" y="44.4" class="st0" width="60.9" height="1.8"/>
<rect x="2" y="44.4" class="st0" width="60.9" height="1.8"/>
<g>
	<path class="st0" d="M215.2,34.3l0.1-3.7l-0.1-5.1l0.1-5.5l-0.2-7.6c0.2-3.9,0.2-3.9,0.2-4.3c0-1-0.4-1.5-1.2-1.6L209,6.6l-1.7-0.1
		c-1.5,0-1.8,0.3-2.1,1.4c-0.2,0.8-0.4,1.8-0.9,2.9c-0.8,2.2-1.1,2.9-1.4,3.5c-0.1,0.3-0.3,0.7-0.5,1l-0.3,0.8c-0.2,0.6-0.4,1-0.6,1
		c-0.3,0-0.4-0.3-0.6-0.9c-0.1-0.5-0.2-0.9-0.5-1.3c-0.2-0.6-0.5-1.3-0.7-2c-0.2-0.7-0.6-1.4-0.9-2.2c-0.4-0.8-0.7-1.4-0.9-2.1
		c-0.6-2-0.7-2.2-2-2.2c-0.7,0-1.5,0-2.6,0.1c-0.4,0-0.7,0-1,0.1c-0.4,0-0.9-0.1-1.6-0.1c-0.3-0.1-0.6,0-0.8-0.1
		c-1.2,0-1.8,0.7-1.8,2l0.1,15.3l0,12.1c-0.1,1.1-0.1,1.9-0.1,2.4c0,0.8,0.4,1.3,1.2,1.3c0.5,0,0.9,0,1.2-0.1
		c0.8-0.1,1.4-0.1,1.5-0.1c0.1,0,0.3,0,0.5,0c1.3,0.2,2.3,0.3,2.9,0.3c0.7,0,1.2-0.5,1.2-1c0-0.1-0.1-0.9-0.2-2l0.1-2.5l-0.1-3.9
		c0-2.2,0-2.2-0.2-4.4c-0.1-0.8-0.1-1.6-0.1-2.3c0-0.4,0.2-0.7,0.5-0.7c0.3,0,0.5,0.2,0.6,0.7c0,0.4,0.5,1.7,1.1,3.1l0.9,1.7
		l0.7,1.8c0.3,1,0.8,1.5,1.5,1.4c0.3,0,0.5-0.2,0.8-0.7c1.4-2.6,2.2-4.1,2.3-4.5c1.2-3.1,1.3-3.5,1.6-3.5c0.2,0,0.5,0.4,0.5,0.8
		c0,0.2,0,0.4,0,0.8c-0.1,1.2-0.1,1.2,0.1,3.9c0,0.8-0.2,3.9-0.2,4.5l0,2.8c0,0.5,0,1.1-0.2,1.9c0,0.2,0,0.4-0.1,0.5
		c0,0.6,0.8,1.4,1.4,1.4l3.2-0.1c0,0,0.1,0,0.2,0.1c0.7,0.1,1.4,0.1,2,0.1c1.5,0,2-0.4,2-1.9C215.4,37.2,215.4,37.2,215.2,34.3z"/>
	<path class="st0" d="M137.8,7.2c-0.2-0.4-0.7-0.7-1.5-0.7l-3.8,0.1c-0.3,0-0.7,0-1.4-0.1c-0.2,0-0.5,0-0.6,0
		c-0.7,0-1.2,0.5-1.2,1.3c0,0.4,0,1.1,0.2,1.9c0.1,0.7,0.2,1.3,0.2,1.8l0,2.8c-0.1,0.5-0.1,1.1-0.1,1.6c0,1,0.1,1.9,0.1,2.9l0,0.4
		c0,0.4-0.2,0.8-0.6,0.8c-0.3,0-0.6-0.3-0.7-0.9c-0.4-1.3-0.4-1.4-1.5-4.2c-1-2.3-1.5-4-2-6.1c-0.5-2-0.7-2.3-1.7-2.3l-3.1,0.1
		l-2.1,0c-1.9,0-2.1,0.2-2.2,1.5c0,0.4,0,1,0.1,1.6c0.1,1.2,0,2.1,0,2.4l-0.1,4.4l0.1,3.9l-0.1,4.4c0,0.7,0,1.6,0,2.7
		c0,7.5,0,8.2,0,9.8l0,1.1c0,1.1,0.3,1.4,1.4,1.4l3-0.1c0.4,0,1,0,1.9,0c0.3,0.1,0.6,0.1,0.8,0.1c1.1,0,1.7-0.4,1.7-1.2l0-0.5
		c-0.3-3.5-0.3-3.5-0.4-5.2c0-0.6,0-1.7,0.1-3.1c0.1-0.8,0.1-1.6,0.1-2.1c0-0.6,0-1.2-0.1-1.5c-0.2-1.4-0.2-1.4-0.2-1.5
		c0-0.2,0.1-0.5,0.3-0.5c0.2,0,0.3,0.2,0.4,0.6l0.4,1c0.3,0.8,0.5,1.5,0.7,2.2c0.6,1.9,0.7,2.1,2.8,7.9c0.2,0.7,0.4,1.2,0.6,1.7
		c0.1,0.4,0.2,0.7,0.3,1.1c0.2,0.7,0.5,1,1.5,1c0.2,0,0.5,0,0.8,0c0.9-0.1,1.6-0.1,2-0.1c0.6,0.1,1.2,0.1,1.9,0.1
		c0.3,0.1,0.6,0,0.7,0.1c1,0,1.6-0.6,1.6-1.6c0-0.2,0-0.6-0.1-1.1c0-1.1-0.1-2.1-0.1-3l0.1-3.6c0-0.4,0-0.7-0.1-1.5
		c-0.1-1-0.1-1.6-0.1-2.1l0.3-16.2C137.9,7.9,137.9,7.5,137.8,7.2z"/>
	<path class="st0" d="M161.6,12.5c-1.5-2.6-1.5-2.7-1.7-2.9c-1.1-1.7-3.8-3-6.4-3l-4.1,0.1c-0.7,0-1.3,0-2.4-0.1
		c-1.1-0.1-2-0.1-2.7-0.1c-1.8,0-2.5,0.6-2.5,1.9c0,0.4,0,1.4,0.1,2.4c0,0.7,0,1.4,0,2.1c0,0.6-0.1,1.7-0.1,3
		c-0.1,1.4-0.1,2.3-0.1,3l0.1,4.2l-0.1,4.9c0,0.6,0.1,1.9,0.1,4c0.1,0.8,0.1,1.5,0.1,2.1c0,0.7,0,0.8-0.2,3
		c-0.1,0.3-0.1,0.5-0.1,0.7c0,1,1.1,1.9,2.3,1.9l0.4,0c2.1-0.2,2.1-0.2,2.6-0.2h1.4c1.1,0.1,2.1,0.1,2.9,0.1c2.7,0,4.5-0.4,6.3-1.4
		c1.8-1,2.5-1.8,3.5-4c1.1-2.5,1.1-2.7,1.4-6.4l0.2-1.5c0.2-1.3,0.2-1.6,0.2-2.5C162.8,18.8,162.2,13.7,161.6,12.5z M154,25.2
		c-0.1,2.4-0.2,3.6-0.2,3.8c-0.3,2-1.1,3-2.3,3.1c-0.9,0-1.3-0.4-1.3-1.5l0-0.4v-2.8c0-2.4,0-5,0-7.8c0-0.7,0-0.9-0.1-2.7l0-1.3
		c0-1.5,0.4-2.1,1.3-2.1c1.4,0,2.1,1.5,2.3,4.7l0.1,2c0.1,0.9,0.1,1.5,0.1,1.7l-0.1,1.8L154,25.2z"/>
	<path class="st0" d="M183.6,32.2C183.2,32,183,32,181,32l-0.8,0c-1.2,0-1.9,0-3.1,0.1l-0.1,0c-0.7,0-1.4-0.3-1.6-0.8
		c0-0.2-0.2-2.4-0.1-4.2c0-0.7,0.8-1.3,2-1.3c0.3,0,0.8,0,1.4,0c0.8,0,1.6,0.1,2.4,0.1c1.6,0,2.4-0.5,2.5-1.7c0-0.6-0.1-4.4-0.2-4.6
		c-0.2-0.7-0.8-1-1.8-1l-0.9,0l-1.9,0.1l-2.3,0.1c-0.9,0-1.4-0.4-1.4-1.3l0.1-1.6l-0.1-1.1c0-0.8,0.4-1.2,1.2-1.2l1.4,0.1
		c1.7-0.2,1.7-0.2,2-0.2c0.3,0,0.7,0,1.1,0.1c0.4,0,0.7,0,1,0c0.9,0,1.5-0.5,1.7-1.1c0.1-0.4,0.1-4.8,0-5.1c-0.4-0.6-1.1-1-2-1
		l-2.1,0c-2.4-0.1-2.4-0.1-2.9-0.1c-0.7,0-1.5,0-2.8,0.1c-2.1,0.1-2.6,0.1-3.1,0.1c-0.5,0-0.5,0-2-0.1c-1.2,0-1.9,0.6-1.9,1.6
		l0.1,1.8l-0.1,1.8l0.1,2.8l-0.1,4.3c0,0,0,0.4,0.1,1l0,1.7l-0.1,4.5l0.2,6.2c0,1.4,0,2.3-0.1,3c-0.1,1.2-0.1,2.1-0.1,2.7
		c0,1.1,0.7,1.7,2.1,1.7c0.6,0,1.3,0,2.2,0c1-0.1,1.7-0.1,2.3-0.1c0.6,0,1.2,0,1.8,0c0.9,0.1,1.6,0.1,1.7,0.2c0.3,0,0.8-0.1,1.4-0.1
		c0.6-0.1,1-0.1,1.4-0.1c0.4,0.1,1,0.1,1.8,0.1c0.3,0,0.6,0,0.9,0c1.1,0,1.9-0.5,2.1-1.4c0.1-0.3,0.1-2.2,0.1-4
		C184.4,33.1,184.2,32.5,183.6,32.2z"/>
	<path class="st0" d="M110,31.7c-1.1-7.5-1.7-10.5-2.3-13.2c-0.2-0.7-0.4-1.5-0.6-2.3c-0.2-0.8-0.4-1.7-0.6-2.7
		c-0.1-0.9-0.3-1.7-0.5-2.5c-0.3-1.1-0.3-1.3-0.4-2.6c-0.2-1.6-0.5-2-1.6-2c-0.3,0-0.8,0-1.4,0.1c-0.6,0.1-1.4,0-2.5,0.1
		c-1,0-1.8,0-2.4-0.1c-0.3,0-0.6-0.1-0.7,0c-1,0-1.4,0.3-1.5,1.1c-0.1,0.3-0.3,1.8-1,4.5c-0.2,1.2-0.5,2.4-0.8,3.5
		c-0.3,1.2-0.6,2.4-0.9,3.7c-0.6,2.8-1.1,5-1.4,6.4c-0.3,1.6-0.6,2.8-0.7,3.8c-0.4,2.3-0.5,3-0.8,4.4c-1.1,4.1-1.1,4.1-1.1,4.7
		c0,0.8,0.3,1.1,1.2,1.1c0.2,0,0.4,0,0.6-0.1c1.1-0.1,1.9-0.1,1.9-0.1l4.4,0.2c0.1,0,0.5-0.4,0.8-0.6c0.3-0.4,0.4-0.8,0.4-1.6
		c-0.1-2.5,0.5-3.4,2.4-3.4c1.5,0,2,0.7,2,2.8c0,2.4,0.4,2.9,1.7,2.9l2.9-0.2l2.9,0.1c1,0,1.6-0.5,1.6-1.3c0-0.3-0.1-0.7-0.2-1.2
		C110.7,35.1,110.4,33.8,110,31.7z M100.2,26.9c-0.9,0-1.5-0.4-1.5-0.9c0-0.1,0.1-0.4,0.1-0.6c0.1-0.8,0.5-3.4,0.9-5.6
		c0.1-0.7,0.3-1.2,0.5-1.2c0.2,0,0.4,0.5,0.5,1.2c0,0.2,0.4,2.8,0.6,4.3c0.3,1.4,0.3,1.5,0.3,1.8C101.7,26.5,101.2,26.9,100.2,26.9z
		"/>
	<path class="st0" d="M87.9,9.8c0-2,0-2-0.1-2.4c-0.2-0.5-0.5-0.8-1.1-0.8h-0.5c-1.7,0.1-3.4,0.2-6,0.2l-7.5-0.1
		c-1.5,0-2.1,0.4-2.1,1.3c0,0.3,0,0.6,0.1,1c0,0.3,0.1,0.7,0,0.9c0,0.2,0,0.2-0.1,1.7c0,2.3,0.2,2.6,1.2,2.6c0.1,0,0.3,0,0.5,0
		c1.2-0.1,1.2-0.1,1.5-0.1c0.6,0,1,0.2,1.2,0.8c0.1,0.3,0.2,2.5,0.2,4.4L75,22.4c0,0.2,0,1.2,0,2.5l0,0.9l0,7.4c0,0.5,0,0.8,0,0.9
		l0.1,3.2c0,0.1-0.1,0.3-0.1,0.7c-0.1,0.3-0.1,0.6-0.1,0.9c0,0.6,0.5,1.1,1.2,1.1c0.3,0,0.8,0,1.4-0.1c0.4,0,0.9-0.1,1.4-0.1
		c0.3,0,0.5,0,0.8,0c1.1,0.1,2,0.2,2.4,0.1c1,0,1.6-0.6,1.6-1.6c0-0.4-0.1-0.9-0.1-1.7c0-0.6-0.1-1.4-0.1-2.2c0-0.6,0-1.6,0-2.8
		c0.1-1.8,0.1-2.7,0.1-3.6c0-0.5,0-1.1-0.1-1.6c-0.1-1.8-0.2-3.1-0.2-3.2c0-0.2,0.1-0.7,0.1-1.5c0.1-0.6,0.1-1.2,0.1-1.6
		c0-0.5-0.1-1.2-0.1-2.2c0-0.7,0-1.1,0-1.3c0-2.6,0-2.6,0.4-2.6l2.3,0c1.4-0.1,1.8-0.5,1.8-1.6c0-0.4,0-1-0.1-1.9L87.9,9.8z"/>
</g>
<g>
	<path class="st0" d="M74.7,50.9c-1.5,0-2.7,1.1-2.7,2.4v13.6h2v-7.2h1.3v7.2h2l0-13.6C77.5,52,76.3,50.9,74.7,50.9z M75.4,57.8
		h-1.3v-4.5c0-0.3,0.3-0.6,0.7-0.6c0.4,0,0.7,0.3,0.7,0.6V57.8z"/>
	<path class="st0" d="M84.3,51h-2.7v15.8h2.7c1.5,0,2.7-1.1,2.7-2.4V53.4C87,52.1,85.8,51,84.3,51z M85,64.5c0,0.3-0.3,0.6-0.7,0.6
		h-0.7V52.8h0.7c0.4,0,0.7,0.3,0.7,0.6V64.5z"/>
	<path class="st0" d="M94.5,64.5c0,0.3-0.3,0.6-0.7,0.6h-0.7V51h-2v15.8h2.7c1.5,0,2.7-1.1,2.7-2.4V51h-2V64.5z"/>
	<polygon class="st0" points="100.7,66.9 104.7,66.9 104.7,65.1 102.7,65.1 102.7,59.6 104.7,59.6 104.7,57.8 102.7,57.8 
		102.7,52.8 104.7,52.8 104.7,51 100.7,51 	"/>
	<path class="st0" d="M111.2,51h-2.7v15.8h2v-7.2h0.7c0.4,0,0.7,0.3,0.7,0.6v6.7h2v-6.4c0-0.7-0.4-1.3-1-1.7v0c0.6-0.4,1-1,1-1.7
		v-3.6C113.9,52.1,112.7,51,111.2,51z M111.9,57.2c0,0.3-0.3,0.6-0.7,0.6h-0.7v-5h0.7c0.4,0,0.7,0.3,0.7,0.6V57.2z"/>
	<polygon class="st0" points="117.3,52.8 119.1,52.8 119.1,66.9 121.2,66.9 121.2,52.8 123,52.8 123,51 117.3,51 	"/>
	<rect x="126.4" y="51" class="st0" width="2" height="15.8"/>
	<path class="st0" d="M135,50.9c-1.5,0-2.7,1.1-2.7,2.4v3.5c0,0.7,0.3,1.2,0.8,1.7l2.4,2.1c0.1,0.1,0.2,0.3,0.2,0.4v3.5
		c0,0.3-0.3,0.6-0.7,0.6c-0.4,0-0.7-0.3-0.7-0.6v-1.9h-2v1.9c0,1.3,1.2,2.4,2.7,2.4c1.5,0,2.7-1.1,2.7-2.4v-3.5
		c0-0.7-0.3-1.2-0.8-1.7l-2.4-2.1c-0.1-0.1-0.2-0.2-0.2-0.4v-3.5c0-0.3,0.3-0.6,0.7-0.6c0.4,0,0.7,0.3,0.7,0.6v1.9h2v-1.9
		C137.8,52,136.6,50.9,135,50.9z"/>
	<rect x="141.7" y="51" class="st0" width="2" height="15.8"/>
	<polygon class="st0" points="152.6,60.7 152.7,62 152.6,62 150.2,51 147.8,51 147.8,66.9 149.9,66.9 149.8,57.3 149.7,55.9 
		149.8,55.9 152.2,66.9 154.6,66.9 154.6,51 152.6,51 	"/>
	<path class="st0" d="M164.1,55.2l0-1.9c0-1.3-1.2-2.4-2.7-2.4c-1.5,0-2.7,1.1-2.7,2.4v11.2c0,1.3,1.2,2.4,2.7,2.4l0.8-0.7
		c0.2,0.4,0.8,0.7,1.4,0.7h0.5v-2.4v-6.6h-2.7v1.8h0.7v4.8c0,0.3-0.3,0.6-0.7,0.6c-0.4,0-0.7-0.3-0.7-0.6V53.3
		c0-0.3,0.3-0.6,0.7-0.6c0.4,0,0.7,0.3,0.7,0.6v1.9H164.1z"/>
	<path class="st0" d="M177.2,55.2l0-1.9c0-1.3-1.2-2.4-2.7-2.4c-1.5,0-2.7,1.1-2.7,2.4v11.2c0,1.3,1.2,2.4,2.7,2.4l0.8-0.7
		c0.3,0.4,0.8,0.7,1.4,0.7h0.5v-2.4v-6.6h-2.7v1.8h0.7v4.8c0,0.3-0.3,0.6-0.7,0.6c-0.4,0-0.7-0.3-0.7-0.6V53.3
		c0-0.3,0.3-0.6,0.7-0.6c0.4,0,0.7,0.3,0.7,0.6v1.9H177.2z"/>
	<path class="st0" d="M184,51h-2.7l0,15.8h2v-7.2h0.7c0.4,0,0.7,0.3,0.7,0.6v6.7h2v-6.4c0-0.7-0.4-1.3-1-1.7v0c0.6-0.4,1-1,1-1.7
		v-3.6C186.7,52.1,185.5,51,184,51z M184.7,57.2c0,0.3-0.3,0.6-0.7,0.6h-0.7v-5h0.7c0.4,0,0.7,0.3,0.7,0.6V57.2z"/>
	<path class="st0" d="M193.5,50.9c-1.5,0-2.7,1.1-2.7,2.4v11.3c0,1.3,1.2,2.4,2.7,2.4c1.5,0,2.7-1.1,2.7-2.4V53.3
		C196.2,52,195,50.9,193.5,50.9z M194.2,64.6c0,0.3-0.3,0.6-0.7,0.6c-0.4,0-0.7-0.3-0.7-0.6V53.3c0-0.3,0.3-0.6,0.7-0.6
		c0.4,0,0.7,0.3,0.7,0.6V64.6z"/>
	<path class="st0" d="M203.7,64.6c0,0.3-0.3,0.6-0.7,0.6c-0.4,0-0.7-0.3-0.7-0.6V51h-2v13.5c0,1.3,1.2,2.4,2.7,2.4
		c1.5,0,2.7-1.1,2.7-2.4V51h-2V64.6z"/>
	<path class="st0" d="M212.6,51h-2.7v15.8h2v-7.2h0.7c1.5,0,2.7-1.1,2.7-2.4v-3.8C215.3,52.1,214.1,51,212.6,51z M213.3,57.2
		c0,0.3-0.3,0.6-0.7,0.6h-0.7v-5h0.7c0.4,0,0.7,0.3,0.7,0.6V57.2z"/>
</g>
</svg>
