<?xml version="1.0" encoding="utf-8"?>
<!-- Generator: Adobe Illustrator 22.0.0, SVG Export Plug-In . SVG Version: 6.00 Build 0)  -->
<svg version="1.1" id="Слой_1" xmlns="http://www.w3.org/2000/svg" xmlns:xlink="http://www.w3.org/1999/xlink" x="0px" y="0px"
	 viewBox="0 0 566.9 566.9" style="enable-background:new 0 0 566.9 566.9;" xml:space="preserve">
<style type="text/css">
	.st0{fill-rule:evenodd;clip-rule:evenodd;fill:#FFFFFF;}
</style>
<rect x="54.5" y="319.9" class="st0" width="473.4" height="6.7"/>
<g>
	<path class="st0" d="M528.9,281.8l0.5-14l-0.3-19l0.4-20.7l-0.8-28.6c0.8-14.5,0.8-14.5,0.8-16.2c0-3.7-1.4-5.6-4.1-5.9l-16.9,0.5
		l-5.5-0.2c-4.9-0.1-6,0.9-7.1,5.2c-0.6,2.9-1.4,6.6-3,10.9c-2.8,8.3-3.7,11.1-4.6,13.1c-0.4,1.2-1,2.5-1.6,3.9l-0.8,3.2
		c-0.6,2.4-1.3,3.9-2,3.9c-0.9,0-1.4-1.3-2-3.2c-0.3-2-0.7-3.4-1.5-4.9c-0.7-2.4-1.7-4.8-2.4-7.3c-0.7-2.6-1.9-5.4-3-8.4
		c-1.3-2.9-2.2-5.4-3-7.9c-1.9-7.5-2.4-8.3-6.5-8.3c-2.2,0-5.1,0.1-8.6,0.3c-1.3,0.2-2.4,0.2-3.2,0.3c-1.3,0-3-0.3-5.2-0.4
		c-1.2-0.2-2.1-0.1-2.7-0.3c-4.1,0.1-6,2.5-5.9,7.6l0.4,57.6l-0.1,45.3c-0.2,4.1-0.4,7.3-0.4,9.1c0,3.2,1.4,4.8,3.9,4.8
		c1.7,0,3,0,4.1-0.3c2.7-0.3,4.6-0.5,5.1-0.5c0.4,0,0.9,0,1.7,0.2c4.4,0.8,7.7,1.2,9.6,1.2c2.3-0.1,4.1-1.7,4.1-3.9
		c0-0.5-0.2-3.5-0.5-7.6l0.4-9.4l-0.3-14.8c0-8.3,0-8.3-0.5-16.4c-0.2-3-0.3-6-0.2-8.5c0-1.7,0.7-2.8,1.6-2.7
		c0.9-0.1,1.7,0.9,2.1,2.7c0.2,1.5,1.7,6.4,3.6,11.8l3,6.5l2.2,6.7c1.1,3.6,2.8,5.5,4.9,5.4c1.2,0.1,1.8-0.7,2.8-2.7
		c4.6-9.8,7.3-15.3,7.7-17c3.9-11.8,4.2-13.1,5.4-13c0.8,0,1.5,1.6,1.5,2.9c0,0.7,0,1.6-0.2,2.8c-0.4,4.3-0.4,4.3,0.3,14.5
		c-0.1,3-0.8,14.7-0.7,17l0.1,10.5c0,1.9-0.2,4.1-0.6,7.2c-0.2,0.7-0.2,1.3-0.2,1.8c0.1,2.2,2.6,5.4,4.5,5.3l10.5-0.5
		c0,0,0.4-0.1,0.7,0.2c2.3,0.3,4.6,0.5,6.6,0.5c5,0,6.7-1.7,6.7-7C529.6,292.7,529.6,292.7,528.9,281.8z"/>
	<path class="st0" d="M272.2,180.2c-0.6-1.6-2.4-2.6-4.9-2.6l-12.7,0.4c-1.1,0-2.5,0-4.7-0.2c-0.7-0.2-1.6-0.2-2-0.2
		c-2.5,0-4.1,2-4.1,4.9c0,1.4,0.1,4,0.6,7.1c0.3,2.6,0.6,4.8,0.6,6.8l-0.2,10.4c-0.2,2-0.3,4-0.2,6.2c0,3.9,0.2,7.2,0.4,10.7
		l-0.1,1.6c0,1.7-0.7,2.9-1.9,3c-1.1,0-1.9-1.3-2.4-3.5c-1.2-5-1.3-5.4-5.1-15.7c-3.2-8.5-5-15-6.8-22.8c-1.7-7.5-2.4-8.7-5.8-8.7
		l-10.1,0.4l-7.1-0.1c-6.2,0-7,0.7-7.1,5.5c0,1.3,0,3.7,0.2,6c0.2,4.5,0.1,7.7,0.2,9l-0.3,16.4l0.2,14.6l-0.4,16.6
		c-0.2,2.6-0.2,6-0.2,10c0.1,28.2,0.1,30.7-0.2,36.7l0,4.1c0,4,1.1,5.3,4.5,5.3l9.9-0.2c1.3,0,3.2,0,6.4,0.2c1,0.2,2,0.2,2.6,0.2
		c3.7,0,5.6-1.5,5.6-4.6l0-1.8c-1.2-13.1-1.2-13.1-1.2-19.5c0-2.2,0-6.5,0.2-11.8c0.2-3.2,0.2-5.8,0.2-7.8c0-2.4,0-4.3-0.2-5.6
		c-0.6-5.2-0.6-5.2-0.5-5.5c0-0.9,0.4-1.8,1-1.8c0.5,0,0.9,0.9,1.3,2.2l1.2,3.9c0.9,2.9,1.6,5.7,2.5,8.2c2,7.2,2.2,7.7,9.4,29.8
		c0.6,2.5,1.3,4.5,2.1,6.3c0.3,1.5,0.6,2.8,1,4c0.6,2.7,1.6,3.7,5,3.7c0.6,0,1.7,0,2.8-0.2c3-0.3,5.3-0.3,6.7-0.4
		c1.9,0.2,4,0.3,6.2,0.4c1,0.2,1.9,0.2,2.3,0.2c3.3,0,5.2-2.3,5.2-6.1c-0.1-0.9,0-2.4-0.2-4c-0.1-4-0.3-7.8-0.3-11.3l0.4-13.6
		c-0.1-1.4-0.1-2.8-0.2-5.7c-0.2-3.7-0.2-6.1-0.3-7.8l1-60.7C272.5,182.8,272.6,181.1,272.2,180.2z"/>
	<path class="st0" d="M351.2,200c-4.9-9.9-5.1-10.3-5.6-11c-3.5-6.5-12.7-11.3-21.2-11.2l-13.7,0.2c-2.2,0-4.3-0.1-8-0.2
		c-3.8-0.2-6.8-0.4-8.8-0.4c-6,0-8.2,2.1-8.2,7.2c0,1.7,0.2,5.2,0.4,9c0.1,2.7,0.1,5.4,0.1,8c-0.1,2.4-0.2,6.3-0.3,11.2
		c-0.2,5.2-0.2,8.7-0.2,11.1l0.2,15.8l-0.2,18.3c0,2.2,0.2,7.2,0.4,14.9c0.2,3.2,0.2,5.7,0.2,7.8c0,2.7,0,3.2-0.7,11.4
		c-0.2,0.9-0.2,1.8-0.2,2.6c-0.1,3.9,3.6,7.3,7.6,7.2l1.2,0.1c6.9-0.6,6.9-0.6,8.8-0.6h4.5c3.7,0.3,7.1,0.4,9.5,0.4
		c8.9-0.1,15-1.5,20.9-5.4c6-3.6,8.2-6.8,11.4-14.9c3.7-9.4,3.6-10.2,4.6-24l0.6-5.5c0.6-5,0.6-6.1,0.6-9.4
		C355.2,223.7,353.3,204.5,351.2,200z M326,247.8c-0.3,8.9-0.7,13.7-0.7,14.2c-1,7.5-3.6,11.4-7.6,11.5c-3.1,0.1-4.4-1.6-4.4-5.5
		l0-1.5v-10.7c0.2-8.8,0.2-18.8,0.2-29.3c-0.1-2.8-0.1-3.2-0.2-10l-0.1-4.8c0-5.7,1.3-7.8,4.5-7.8c4.6,0.1,7,5.7,7.7,17.5l0.4,7.4
		c0.3,3.4,0.4,5.5,0.4,6.3l-0.4,6.7L326,247.8z"/>
	<path class="st0" d="M423.9,274.2c-1.3-0.8-1.7-0.8-8.4-0.7l-2.6,0c-4.1,0.1-6.1,0-10.3,0.2l-0.4-0.1c-2.5,0.1-4.5-1-5.3-2.9
		c-0.1-0.6-0.6-9-0.5-15.9c-0.1-2.8,2.7-4.9,6.5-4.9c1.1,0,2.6-0.1,4.6,0.1c2.5,0.1,5.1,0.4,8,0.4c5.4,0,7.9-1.9,8.2-6.5
		c0.1-2.4-0.2-16.4-0.6-17.3c-0.8-2.5-2.6-3.7-5.9-3.7l-3-0.1l-6.2,0.2l-7.6,0.4c-3,0-4.7-1.7-4.6-4.8l0.2-6l-0.2-4.2
		c0-2.9,1.5-4.6,3.9-4.6l4.6,0.4c5.6-0.6,5.6-0.6,6.8-0.6c1.2,0,2.2,0,3.8,0.2c1.3,0.1,2.4,0.2,3.2,0.1c2.9,0,5.1-1.8,5.6-4.2
		c0.4-1.5,0.4-18.1,0-19c-1.2-2.3-3.6-3.7-6.6-3.7l-7.1,0.2c-7.9-0.4-7.9-0.4-9.6-0.3c-2.5,0-5,0-9.2,0.3c-7,0.4-8.7,0.3-10.2,0.4
		c-1.6,0-1.6,0-6.7-0.4c-3.8,0-6.2,2.4-6.2,5.9l0.4,6.8l-0.2,6.9l0.4,10.3l-0.4,16.3c0,0.2,0,1.6,0.2,3.8l0,6.5l-0.4,16.7l0.6,23.5
		c0,5.1-0.1,8.8-0.2,11.2c-0.2,4.5-0.4,7.9-0.4,10.2c0,4.3,2.3,6.5,6.8,6.4c2,0,4.4,0.1,7.2-0.2c3.3-0.4,5.7-0.4,7.7-0.4
		c2.1-0.1,4.1,0,5.9,0.1c3.1,0.4,5.2,0.6,5.8,0.6c0.9-0.1,2.5-0.2,4.6-0.4c2-0.4,3.5-0.4,4.6-0.4c1.2,0.2,3.2,0.4,5.8,0.6
		c1.1,0.1,2,0.2,3,0.2c3.8,0,6.3-2,6.9-5.2c0.2-1.1,0.4-8.1,0.3-15C426.7,277.5,426,275.2,423.9,274.2z"/>
	<path class="st0" d="M180.4,272.3c-3.8-28.2-5.7-39.3-7.7-49.4c-0.7-2.8-1.3-5.7-1.9-8.5c-0.7-2.9-1.3-6.5-2.1-10.1
		c-0.4-3.3-1.1-6.4-1.7-9.4c-0.9-4.3-0.9-4.9-1.5-9.9c-0.6-6.1-1.7-7.6-5.3-7.6c-1.1,0-2.8,0-4.7,0.2c-2,0.2-4.6,0.2-8.4,0.2
		c-3.4,0-6-0.1-7.8-0.2c-1.2-0.2-2.1-0.2-2.5-0.2c-3.4,0-4.5,1-5,4.3c-0.2,1.1-1.2,6.8-3.2,16.9c-0.8,4.7-1.7,8.9-2.8,13.1
		c-1.1,4.4-2.1,9.1-3,14c-2.1,10.5-3.6,18.7-4.7,23.9c-1,5.8-1.9,10.5-2.3,14.3c-1.3,8.8-1.6,11.3-2.7,16.5
		c-3.5,15.5-3.5,15.5-3.6,17.8c0,2.9,1.1,4.3,4.1,4.2c0.6-0.1,1.2,0,1.9-0.2c3.6-0.3,6.2-0.5,6.2-0.5l14.7,0.8
		c0.4,0,1.7-1.4,2.5-2.2c0.9-1.5,1.3-3.1,1.3-6.1c-0.2-9.4,1.8-12.7,8-12.7c4.8,0,6.5,2.6,6.7,10.3c0.2,9,1.3,11.1,5.6,11.1l9.7-0.8
		l9.6,0.4c3.3,0,5.3-1.7,5.2-4.8c-0.1-1.2-0.2-2.7-0.6-4.4C182.6,285,181.5,279.9,180.4,272.3z M147.6,253.9c-3,0-4.9-1.3-4.9-3.2
		c0.1-0.5,0.2-1.5,0.4-2.4c0.3-3,1.8-12.7,3.1-21c0.2-2.6,0.9-4.7,1.6-4.6c0.8,0,1.4,1.8,1.8,4.4c0,0.8,1.3,10.6,2.1,16.3
		c0.9,5.3,0.9,5.7,0.9,6.9C152.6,252.6,150.9,253.9,147.6,253.9z"/>
	<path class="st0" d="M106.9,189.7c0-7.6,0-7.6-0.4-9c-0.5-2-1.7-2.9-3.5-2.9h-1.7c-5.6,0.4-11.4,0.6-20,0.6L56.4,178
		c-4.9-0.1-7,1.5-7,4.9c0,1-0.1,2.2,0.2,3.7c0.2,1.3,0.2,2.5,0.2,3.4c0,0.8,0,0.8-0.3,6.4c-0.1,8.5,0.5,9.7,4.1,9.6
		c0.5,0,1-0.1,1.6-0.2c3.9-0.4,3.9-0.4,4.8-0.4c2.1,0,3.3,0.9,4,2.9c0.2,1.1,0.6,9.5,0.5,16.6l-0.3,12c0,0.7-0.1,4.4,0.2,9.3l0,3.4
		l0,27.7c-0.2,1.7-0.1,3.1-0.2,3.2l0.2,12c0,0.4-0.2,1.3-0.4,2.7c-0.2,1.1-0.2,2.3-0.2,3.2c0,2.4,1.8,4.3,3.9,4.2
		c1.1,0.1,2.7-0.2,4.6-0.5c1.3-0.2,3.1-0.3,4.6-0.4c0.9,0,1.7,0,2.7,0.2c3.7,0.4,6.7,0.6,7.8,0.5c3.4,0,5.4-2.2,5.4-5.9
		c0-1.3-0.2-3.5-0.4-6.3c-0.2-2.4-0.2-5.2-0.2-8.1c0-2.4-0.1-5.9,0.1-10.7c0.4-6.9,0.4-10,0.3-13.5c0.1-2,0-4-0.2-5.9
		c-0.3-6.9-0.5-11.8-0.6-12.1c0-0.6,0.3-2.6,0.4-5.5c0.2-2.1,0.2-4.4,0.2-6c-0.1-1.9-0.2-4.6-0.4-8.3c-0.1-2.5-0.1-4.3-0.1-5
		c0-9.6,0-9.6,1.5-9.9l7.7,0.1c4.5-0.2,6-1.7,5.9-6c0-1.4,0-3.9-0.2-6.9L106.9,189.7z"/>
</g>
<g>
	<path class="st0" d="M63.4,344.3c-4.9,0-8.9,4-8.9,8.9v51h6.7V377h4.5v27.2h6.7l0-51C72.4,348.3,68.4,344.3,63.4,344.3z
		 M65.6,370.2h-4.5v-17c0-1.2,1-2.2,2.2-2.2c1.3,0,2.3,1,2.3,2.2V370.2z"/>
	<path class="st0" d="M95,344.7h-9v59.4h9c5,0,9-4,9-9v-41.5C104,348.7,100,344.7,95,344.7z M97.2,395.2c0,1.3-1,2.3-2.3,2.3h-2.2
		v-46H95c1.3,0,2.3,1,2.3,2.2V395.2z"/>
	<path class="st0" d="M128.8,395.2c0,1.3-1,2.3-2.3,2.3h-2.2v-52.7h-6.7v59.4h8.9c5,0,9-4,9-9v-50.4h-6.7V395.2z"/>
	<polygon class="st0" points="149.2,404.2 162.7,404.2 162.7,397.4 156,397.4 156,377 162.7,377 162.7,370.2 156,370.2 156,351.5 
		162.7,351.5 162.7,344.7 149.2,344.7 	"/>
	<path class="st0" d="M184.1,344.7h-8.9v59.4h6.8V377h2.2c1.3,0,2.3,1,2.3,2.2v25h6.7v-24.1c0-2.7-1.3-5-3.3-6.4v-0.2
		c2-1.5,3.3-3.8,3.3-6.5v-13.4C193.1,348.7,189.1,344.7,184.1,344.7z M186.4,368c0,1.2-1,2.3-2.3,2.3h-2.2v-18.8h2.2
		c1.3,0,2.3,1,2.3,2.2V368z"/>
	<polygon class="st0" points="204.3,351.5 210.4,351.5 210.4,404.2 217.2,404.2 217.2,351.5 223.3,351.5 223.3,344.7 204.3,344.7 	
		"/>
	<rect x="234.5" y="344.7" class="st0" width="6.7" height="59.4"/>
	<path class="st0" d="M263.2,344.3c-4.9,0-8.9,4-8.9,8.9v13.2c0,2.5,0.9,4.5,2.6,6.4l7.9,7.9c0.5,0.5,0.7,1,0.7,1.6v13.3
		c0,1.2-1,2.3-2.3,2.3c-1.2,0-2.2-1.1-2.2-2.3v-7.2h-6.7v7.2c0,5,4,9,8.9,9c5,0,9-4,9-9v-13.3c0-2.5-0.9-4.6-2.7-6.4l-7.9-8
		c-0.4-0.4-0.6-0.9-0.6-1.6v-13.2c0-1.2,1-2.2,2.2-2.2c1.3,0,2.3,1,2.3,2.2v7.2h6.7v-7.2C272.2,348.3,268.2,344.3,263.2,344.3z"/>
	<polygon class="st0" points="285.1,404.2 291.8,404.2 291.8,344.7 285.1,344.7 	"/>
	<polygon class="st0" points="321.5,380.8 321.7,386 321.5,386 313.5,344.7 305.6,344.7 305.6,404.2 312.3,404.2 312,368 
		311.8,362.8 312,362.8 320.1,404.2 328,404.2 328,344.7 321.2,344.7 	"/>
	<path class="st0" d="M359.5,360.4l0-7.2c0-4.9-4-8.9-9-8.9c-4.9,0-8.9,4-8.9,8.9v42c0,5,4,9,8.9,9l2.8-2.8c0.8,1.7,2.6,2.8,4.5,2.8
		h1.7v-9v-24.9h-9v6.7h2.3v18.2c0,1.3-1,2.3-2.3,2.3c-1.2,0-2.2-1-2.2-2.3v-42c0-1.2,1-2.2,2.2-2.2c1.3,0,2.3,1,2.3,2.2v7.2H359.5z"
		/>
	<path class="st0" d="M402.8,360.4l0-7.2c0-4.9-4-8.9-9-8.9c-4.9,0-8.9,4-8.9,8.9v42c0,5,4,9,8.9,9l2.8-2.8c0.8,1.7,2.6,2.8,4.5,2.8
		h1.7v-9v-24.9h-9v6.7h2.3v18.2c0,1.3-1,2.3-2.3,2.3c-1.2,0-2.2-1-2.2-2.3v-42c0-1.2,1-2.2,2.2-2.2c1.3,0,2.3,1,2.3,2.2v7.2H402.8z"
		/>
	<path class="st0" d="M425.3,344.7h-8.9l0,59.4h6.7V377h2.2c1.3,0,2.3,1,2.3,2.2v25h6.7v-24.1c0-2.7-1.3-5-3.3-6.4v-0.2
		c2-1.5,3.3-3.8,3.3-6.5v-13.4C434.3,348.7,430.3,344.7,425.3,344.7z M427.6,368c0,1.2-1,2.3-2.3,2.3h-2.2v-18.8h2.2
		c1.3,0,2.3,1,2.3,2.2V368z"/>
	<path class="st0" d="M456.9,344.3c-4.9,0-8.9,4-8.9,8.9v42.4c0,5,4,9,8.9,9c5,0,9-4,9-9v-42.4C465.9,348.3,461.9,344.3,456.9,344.3
		z M459.2,395.6c0,1.2-1,2.3-2.3,2.3c-1.2,0-2.2-1.1-2.2-2.3v-42.4c0-1.2,1-2.2,2.2-2.2c1.3,0,2.3,1,2.3,2.2V395.6z"/>
	<path class="st0" d="M490.8,395.6c0,1.2-1,2.3-2.3,2.3c-1.2,0-2.2-1.1-2.2-2.3v-50.9h-6.8v50.9c0,5,4,9,8.9,9c5,0,9-4,9-9v-50.9
		h-6.7V395.6z"/>
	<path class="st0" d="M520.1,344.7h-9v59.4h6.8V377h2.2c5,0,9-4.1,9-9v-14.3C529.1,348.7,525.1,344.7,520.1,344.7z M522.4,368
		c0,1.2-1,2.3-2.3,2.3h-2.2v-18.8h2.2c1.3,0,2.3,1,2.3,2.2V368z"/>
</g>
</svg>
