<svg id="Слой_1" data-name="Слой 1" xmlns="http://www.w3.org/2000/svg" viewBox="0 0 480.13 227.68"><defs><style>.cls-1,.cls-2{fill:#1d1d1b;}.cls-2{fill-rule:evenodd;}</style></defs><title>Tandem_Adv_Gr</title><rect class="cls-1" x="5.07" y="142.93" width="473.38" height="6.7"/><path class="cls-2" d="M490.86,119.8l.47-14-.33-19,.35-20.67-.76-28.62c.78-14.53.78-14.53.76-16.21,0-3.69-1.36-5.58-4.11-5.93l-16.86.47-5.48-.23c-4.86-.06-6,.94-7.11,5.18a71.48,71.48,0,0,1-3,10.88C452,40,451.1,42.77,450.18,44.78a36.44,36.44,0,0,1-1.57,3.86l-.84,3.16c-.61,2.36-1.29,3.88-2,3.87-.89,0-1.45-1.28-2-3.21a16,16,0,0,0-1.5-4.91c-.74-2.42-1.68-4.78-2.45-7.35s-1.89-5.37-3-8.37c-1.28-2.9-2.22-5.43-3-7.89-1.88-7.52-2.43-8.3-6.49-8.25-2.24,0-5.05.14-8.63.34-1.29.18-2.37.18-3.18.26-1.31,0-3-.26-5.19-.42-1.15-.21-2.07-.15-2.69-.26-4.13.08-6,2.49-5.9,7.62l.36,57.57L402,126.13c-.2,4.09-.41,7.26-.38,9.08,0,3.15,1.44,4.79,3.91,4.79a18.35,18.35,0,0,0,4.11-.27c2.66-.3,4.57-.46,5.06-.5a7.85,7.85,0,0,1,1.67.15,63.22,63.22,0,0,0,9.56,1.16,4.09,4.09,0,0,0,4.14-3.93c0-.52-.2-3.54-.55-7.57l.37-9.38-.25-14.75a155.25,155.25,0,0,0-.51-16.37,75.55,75.55,0,0,1-.2-8.52c0-1.68.7-2.79,1.64-2.73s1.7.86,2.09,2.7c.15,1.53,1.68,6.44,3.57,11.79l3,6.47,2.24,6.69c1.11,3.62,2.8,5.48,4.9,5.43,1.15.11,1.81-.71,2.79-2.73,4.65-9.79,7.33-15.29,7.66-17,3.91-11.8,4.25-13.06,5.41-13,.8,0,1.55,1.62,1.52,2.91a27.59,27.59,0,0,1-.15,2.82c-.39,4.33-.39,4.33.31,14.52-.15,3-.77,14.74-.66,17l.15,10.47a49.71,49.71,0,0,1-.58,7.24,15.2,15.2,0,0,0-.2,1.81c.09,2.25,2.62,5.37,4.53,5.32l10.5-.52a.85.85,0,0,1,.67.23,50.6,50.6,0,0,0,6.64.51c5,0,6.73-1.68,6.7-7C491.61,130.69,491.61,130.69,490.86,119.8Z" transform="translate(-11.46 -14.97)"/><path class="cls-2" d="M234.2,18.2c-.58-1.63-2.41-2.56-4.9-2.62L216.59,16a34,34,0,0,1-4.73-.19,9.92,9.92,0,0,0-2-.16c-2.48,0-4.1,2-4.1,4.86a55.6,55.6,0,0,0,.56,7.1,53.6,53.6,0,0,1,.58,6.79l-.17,10.45a44.62,44.62,0,0,0-.18,6.17c0,3.89.18,7.18.4,10.72l-.05,1.64c0,1.66-.7,2.95-1.88,3s-1.91-1.26-2.42-3.45c-1.17-5-1.32-5.4-5.05-15.71a158.76,158.76,0,0,1-6.77-22.84c-1.74-7.54-2.43-8.7-5.8-8.75L174.83,16l-7.09-.12c-6.18,0-7,.7-7.13,5.47a56.58,56.58,0,0,0,.22,5.95c.21,4.53.14,7.7.17,9l-.3,16.43.17,14.58-.42,16.59c-.15,2.59-.17,6-.17,10,.09,28.24.07,30.72-.15,36.66l0,4.1c0,4,1.12,5.35,4.51,5.35l9.92-.2c1.3,0,3.17,0,6.36.15a11.88,11.88,0,0,0,2.61.2c3.72,0,5.62-1.49,5.6-4.61l0-1.84C188,120.6,188,120.6,188,114.18c0-2.23,0-6.47.18-11.8.22-3.17.17-5.83.17-7.78a51.45,51.45,0,0,0-.17-5.55c-.61-5.21-.61-5.21-.55-5.52,0-.94.37-1.84,1-1.84s.86.89,1.26,2.18L191,87.8c.93,2.9,1.65,5.71,2.46,8.24,2,7.23,2.18,7.75,9.35,29.83a35.38,35.38,0,0,0,2.11,6.34,34.24,34.24,0,0,0,1,4c.59,2.75,1.63,3.75,5,3.71a18.7,18.7,0,0,0,2.8-.17c3-.34,5.31-.34,6.74-.44,1.9.22,4,.3,6.18.44A20.14,20.14,0,0,0,229,140c3.33,0,5.24-2.27,5.24-6.14a35.59,35.59,0,0,0-.24-4c-.12-4-.35-7.79-.32-11.3l.42-13.58c-.08-1.36-.08-2.79-.24-5.75-.24-3.69-.24-6.1-.28-7.78l1-60.71C234.55,20.79,234.59,19.15,234.2,18.2Z" transform="translate(-11.46 -14.97)"/><path class="cls-2" d="M313.23,38c-4.88-9.88-5.05-10.28-5.62-11-3.51-6.48-12.74-11.25-21.16-11.2L272.77,16c-2.23,0-4.26,0-8-.19s-6.78-.43-8.82-.44c-6,0-8.2,2.11-8.18,7.24,0,1.67.15,5.21.38,9,.14,2.74.14,5.37.14,8-.06,2.36-.2,6.27-.34,11.24-.17,5.16-.21,8.67-.18,11.13l.18,15.77L247.76,96c0,2.25.18,7.24.36,14.92.24,3.18.24,5.74.21,7.76,0,2.71,0,3.15-.67,11.44a19.25,19.25,0,0,0-.21,2.57c-.07,3.85,3.59,7.29,7.64,7.21l1.16,0c6.91-.59,6.91-.59,8.76-.64h4.53c3.68.34,7.08.37,9.55.4,8.93-.06,15-1.53,20.94-5.43,6-3.65,8.19-6.77,11.44-14.89,3.67-9.39,3.63-10.17,4.63-24l.56-5.47a59.82,59.82,0,0,0,.56-9.43C317.18,61.67,315.28,42.45,313.23,38ZM288,85.8c-.29,8.86-.73,13.68-.67,14.23-1,7.54-3.61,11.44-7.62,11.46-3.08.06-4.36-1.61-4.4-5.51l0-1.53V93.77c.16-8.85.16-18.8.16-29.3-.07-2.8-.06-3.21-.17-10l-.06-4.8c0-5.69,1.31-7.76,4.45-7.76,4.58.08,7,5.73,7.71,17.49l.38,7.41c.27,3.38.42,5.54.42,6.25l-.42,6.68Z" transform="translate(-11.46 -14.97)"/><path class="cls-2" d="M385.94,112.15c-1.32-.77-1.71-.75-8.43-.74h-2.63c-4.1.07-6.14,0-10.28.2l-.39,0c-2.48.08-4.53-1-5.25-2.91-.13-.57-.58-9-.5-15.87-.08-2.77,2.7-4.94,6.48-4.9a30.32,30.32,0,0,1,4.56.14c2.53.1,5.14.4,8,.35,5.41,0,7.86-1.87,8.23-6.51.11-2.35-.18-16.39-.61-17.28-.78-2.53-2.63-3.72-5.9-3.66l-3.05-.06-6.16.21-7.55.37c-3,0-4.68-1.66-4.64-4.77l.17-5.95-.17-4.23c0-2.94,1.49-4.58,3.9-4.58l4.64.39c5.64-.59,5.64-.59,6.77-.58a26.17,26.17,0,0,1,3.77.19,22.5,22.5,0,0,0,3.16.14,5.52,5.52,0,0,0,5.58-4.19c.37-1.48.36-18.1,0-19a7.19,7.19,0,0,0-6.55-3.72l-7.1.18c-7.88-.37-7.88-.37-9.57-.34-2.45,0-5,0-9.24.34-7,.37-8.68.34-10.17.4a54.86,54.86,0,0,1-6.68-.36c-3.82,0-6.23,2.4-6.23,5.91l.4,6.76-.2,6.85.38,10.34-.39,16.3c0,.17,0,1.58.21,3.83l0,6.47-.38,16.74.62,23.45c-.05,5.13-.07,8.81-.22,11.22-.2,4.51-.37,7.94-.37,10.16,0,4.25,2.25,6.48,6.82,6.44,2,0,4.45.06,7.19-.15a51.1,51.1,0,0,1,7.67-.37,46.25,46.25,0,0,1,5.86.12c3.14.44,5.19.57,5.77.63.91-.06,2.5-.22,4.6-.41a25.15,25.15,0,0,1,4.57-.4,58.31,58.31,0,0,0,5.82.57,24.75,24.75,0,0,0,3,.18c3.79,0,6.35-2.05,6.9-5.17.2-1.13.43-8.09.32-15C388.71,115.47,388,113.22,385.94,112.15Z" transform="translate(-11.46 -14.97)"/><path class="cls-2" d="M142.36,110.26C138.57,82,136.7,71,134.65,60.86c-.7-2.78-1.32-5.73-1.89-8.48-.74-2.91-1.34-6.49-2.08-10.15-.41-3.26-1.11-6.43-1.71-9.39a75.93,75.93,0,0,1-1.46-9.94c-.61-6.11-1.69-7.58-5.28-7.56a40.35,40.35,0,0,0-4.68.19c-2,.19-4.65.16-8.42.22-3.36,0-6-.09-7.82-.25a13.68,13.68,0,0,0-2.46-.16c-3.36,0-4.48.95-5,4.3-.19,1.07-1.15,6.77-3.22,16.89-.77,4.66-1.68,8.91-2.75,13.11-1.13,4.41-2.11,9.09-3,14-2.08,10.5-3.58,18.67-4.69,23.85-1,5.84-1.88,10.5-2.26,14.3-1.26,8.8-1.64,11.31-2.72,16.45-3.53,15.51-3.53,15.51-3.55,17.75,0,2.88,1.07,4.25,4.08,4.23A6.73,6.73,0,0,0,77.6,140c3.59-.32,6.19-.53,6.19-.53l14.74.76c.41,0,1.74-1.37,2.5-2.25a11.11,11.11,0,0,0,1.31-6.11c-.23-9.37,1.79-12.7,8-12.7,4.85,0,6.51,2.58,6.74,10.34.16,9,1.28,11.06,5.6,11.06l9.72-.75,9.6.35c3.33,0,5.25-1.7,5.23-4.82a26.44,26.44,0,0,0-.6-4.39A180,180,0,0,1,142.36,110.26ZM109.61,91.93c-3,0-4.94-1.33-4.9-3.19.07-.55.24-1.47.42-2.39.29-3,1.78-12.72,3.11-21,.2-2.63.92-4.66,1.63-4.58s1.39,1.78,1.79,4.37c0,.79,1.27,10.56,2.06,16.26.89,5.35.87,5.69.87,6.87C114.63,90.63,112.93,91.93,109.61,91.93Z" transform="translate(-11.46 -14.97)"/><path class="cls-2" d="M68.91,27.7c0-7.55,0-7.55-.4-9-.55-2-1.68-2.93-3.54-2.93H63.31c-5.61.35-11.43.57-20,.57L18.42,16c-4.93-.07-7,1.46-7,4.94a19.5,19.5,0,0,0,.18,3.66A22.16,22.16,0,0,1,11.82,28c0,.77,0,.77-.28,6.44-.06,8.47.5,9.67,4.11,9.6a8.93,8.93,0,0,0,1.62-.17,38,38,0,0,1,4.81-.37,3.84,3.84,0,0,1,4,2.95c.18,1.12.59,9.54.52,16.62l-.33,12c0,.73-.07,4.4.16,9.34v3.37l0,27.71c-.15,1.74-.12,3.06-.15,3.25l.18,12c0,.38-.25,1.26-.38,2.7a20.57,20.57,0,0,0-.2,3.19,4,4,0,0,0,3.95,4.2,22.8,22.8,0,0,0,4.62-.53c1.34-.16,3.08-.32,4.56-.35a12.74,12.74,0,0,1,2.65.16c3.7.37,6.69.59,7.82.55,3.36,0,5.44-2.22,5.44-5.89,0-1.32-.21-3.54-.38-6.28-.17-2.43-.24-5.18-.2-8.09,0-2.41-.07-5.87.14-10.69.38-6.86.42-10,.35-13.54a42.5,42.5,0,0,0-.18-5.9c-.28-6.91-.52-11.79-.59-12.15,0-.58.28-2.55.43-5.54.19-2.14.19-4.39.19-6-.06-1.87-.23-4.64-.44-8.34-.14-2.45-.11-4.3-.12-5,0-9.63,0-9.63,1.48-9.86l7.68.07c4.49-.25,6-1.73,5.94-6,0-1.44,0-3.86-.17-6.95Z" transform="translate(-11.46 -14.97)"/><path class="cls-2" d="M25.37,182.27a9,9,0,0,0-8.93,8.94v51h6.73V215h4.47v27.19h6.73l0-51A9,9,0,0,0,25.37,182.27Zm2.27,26H23.17v-17a2.2,2.2,0,0,1,2.2-2.21,2.22,2.22,0,0,1,2.27,2.2Z" transform="translate(-11.46 -14.97)"/><path class="cls-2" d="M57,182.74H48v59.43h9a9,9,0,0,0,9-9V191.65A9,9,0,0,0,57,182.74Zm2.27,50.43A2.24,2.24,0,0,1,57,235.44H54.76v-46H57a2.22,2.22,0,0,1,2.27,2.19Z" transform="translate(-11.46 -14.97)"/><path class="cls-2" d="M90.84,233.17a2.24,2.24,0,0,1-2.28,2.27h-2.2v-52.7H79.63v59.43h8.93a9,9,0,0,0,9-9V182.74H90.84Z" transform="translate(-11.46 -14.97)"/><polygon class="cls-2" points="99.76 227.21 113.24 227.21 113.24 220.48 106.51 220.48 106.51 200.02 113.24 200.02 113.24 193.27 106.51 193.27 106.51 174.5 113.24 174.5 113.24 167.77 99.76 167.77 99.76 227.21"/><path class="cls-2" d="M146.07,182.74h-8.93v59.43h6.75V215h2.18a2.23,2.23,0,0,1,2.29,2.19v25h6.73V218.1a7.85,7.85,0,0,0-3.34-6.44v-.15a7.9,7.9,0,0,0,3.34-6.46v-13.4A9,9,0,0,0,146.07,182.74ZM148.36,206a2.28,2.28,0,0,1-2.29,2.28h-2.18V189.46h2.18a2.23,2.23,0,0,1,2.29,2.19Z" transform="translate(-11.46 -14.97)"/><polygon class="cls-2" points="154.85 174.5 160.99 174.5 160.99 227.21 167.72 227.21 167.72 174.5 173.86 174.5 173.86 167.77 154.85 167.77 154.85 174.5"/><rect class="cls-1" x="185.07" y="167.77" width="6.75" height="59.44"/><path class="cls-2" d="M225.18,182.27a9,9,0,0,0-8.93,8.94v13.24a8.87,8.87,0,0,0,2.65,6.38l7.87,7.94a2.19,2.19,0,0,1,.68,1.59v13.25a2.23,2.23,0,1,1-4.46,0v-7.17h-6.74v7.17a9,9,0,1,0,17.95,0V220.36a8.72,8.72,0,0,0-2.66-6.36l-7.94-8a2.07,2.07,0,0,1-.61-1.59V191.21a2.23,2.23,0,0,1,4.46,0v7.2h6.75v-7.2A9,9,0,0,0,225.18,182.27Z" transform="translate(-11.46 -14.97)"/><polygon class="cls-2" points="235.63 227.21 242.37 227.21 242.37 167.74 235.63 167.77 235.63 227.21"/><polygon class="cls-2" points="272.06 203.87 272.22 209.03 272.06 209.03 264.04 167.77 256.09 167.77 256.09 227.21 262.83 227.21 262.52 191.07 262.38 185.88 262.52 185.88 270.62 227.21 278.51 227.21 278.51 167.77 271.77 167.77 272.06 203.87"/><path class="cls-2" d="M321.5,198.41l0-7.2a9,9,0,0,0-17.94,0v42a9,9,0,0,0,8.94,9l2.81-2.8a5.05,5.05,0,0,0,4.54,2.8h1.67V208.24h-9V215h2.26v18.19a2.23,2.23,0,1,1-4.46,0v-42a2.23,2.23,0,0,1,4.46,0v7.2Z" transform="translate(-11.46 -14.97)"/><path class="cls-2" d="M364.76,198.41l0-7.2a9,9,0,0,0-17.94,0v42a9,9,0,0,0,8.94,9l2.8-2.8a5.07,5.07,0,0,0,4.53,2.8h1.67V208.24h-9V215H358v18.19a2.24,2.24,0,0,1-2.27,2.27,2.19,2.19,0,0,1-2.19-2.27v-42a2.19,2.19,0,0,1,2.19-2.21,2.22,2.22,0,0,1,2.27,2.21v7.2Z" transform="translate(-11.46 -14.97)"/><path class="cls-2" d="M387.34,182.74H378.4v59.43h6.72V215h2.21a2.21,2.21,0,0,1,2.26,2.19v25h6.73V218.1a7.85,7.85,0,0,0-3.31-6.44v-.15a7.9,7.9,0,0,0,3.31-6.46v-13.4A8.94,8.94,0,0,0,387.34,182.74ZM389.6,206a2.27,2.27,0,0,1-2.27,2.28h-2.2V189.46h2.21a2.21,2.21,0,0,1,2.26,2.19Z" transform="translate(-11.46 -14.97)"/><path class="cls-2" d="M418.92,182.27a9,9,0,0,0-8.93,8.94v42.43a9,9,0,1,0,17.95,0v-42.4A9,9,0,0,0,418.92,182.27Zm2.28,51.34a2.24,2.24,0,1,1-4.48,0v-42.4a2.24,2.24,0,0,1,4.48,0Z" transform="translate(-11.46 -14.97)"/><path class="cls-2" d="M452.8,233.61a2.32,2.32,0,0,1-2.28,2.3,2.27,2.27,0,0,1-2.19-2.27v-50.9h-6.75v50.87a9,9,0,1,0,18,0V182.74H452.8Z" transform="translate(-11.46 -14.97)"/><path class="cls-2" d="M482.12,182.74h-8.95v59.43h6.76V215h2.19a9,9,0,0,0,9-9V191.65A9,9,0,0,0,482.12,182.74ZM484.38,206a2.26,2.26,0,0,1-2.26,2.28h-2.19V189.46h2.19a2.2,2.2,0,0,1,2.26,2.19Z" transform="translate(-11.46 -14.97)"/></svg>