<?xml version="1.0" encoding="utf-8"?>
<!-- Generator: Adobe Illustrator 22.0.0, SVG Export Plug-In . SVG Version: 6.00 Build 0)  -->
<svg version="1.1" id="Capa_1" xmlns="http://www.w3.org/2000/svg" xmlns:xlink="http://www.w3.org/1999/xlink" x="0px" y="0px"
	 viewBox="0 0 512 512" style="enable-background:new 0 0 512 512;" xml:space="preserve">
<style type="text/css">
	.st0{fill:#BB162A;}
</style>
<g>
	<g>
		<path class="st0" d="M102.4,387.4c-4.7,0-8.5,3.8-8.5,8.5v22.2H17.1v-59.7c0-4.7-3.8-8.5-8.5-8.5S0,353.7,0,358.4v68.3
			c0,4.7,3.8,8.5,8.5,8.5h93.9c4.7,0,8.5-3.8,8.5-8.5V396C110.9,391.2,107.1,387.4,102.4,387.4z"/>
	</g>
</g>
<g>
	<g>
		<path class="st0" d="M503.5,349.9c-4.7,0-8.5,3.8-8.5,8.5v59.7h-76.8v-21.3c0-4.7-3.8-8.5-8.5-8.5s-8.5,3.8-8.5,8.5v29.9
			c0,4.7,3.8,8.5,8.5,8.5h93.9c4.7,0,8.5-3.8,8.5-8.5v-68.3C512,353.7,508.2,349.9,503.5,349.9z"/>
	</g>
</g>
<g>
	<g>
		<path class="st0" d="M503.5,273.1c-4.7,0-8.5,3.8-8.5,8.5v72.3c0,16.6-13.5,30.1-30.1,30.1H327.7c-4.7,0-8.5,3.8-8.5,8.5
			s3.8,8.5,8.5,8.5h137.2c26,0,47.2-21.2,47.2-47.2v-72.3C512,276.9,508.2,273.1,503.5,273.1z"/>
	</g>
</g>
<g>
	<g>
		<path class="st0" d="M176.6,384H47.2c-16.6,0-30.1-13.5-30.1-30.1v-69.7c0-4.7-3.8-8.5-8.5-8.5S0,279.4,0,284.2v69.7
			c0,26,21.2,47.2,47.2,47.2h129.5c4.7,0,8.5-3.8,8.5-8.5C185.2,387.8,181.4,384,176.6,384z"/>
	</g>
</g>
<g>
	<g>
		<path class="st0" d="M457.8,183.3l-4.2-29.4c-6.3-43.9-44.5-77-88.8-77H147.2c-44.4,0-82.6,33.1-88.8,77L54.2,183
			c-0.7,4.7,2.6,9,7.2,9.7s9-2.6,9.7-7.2l4.2-29.2c5.1-35.6,36-62.4,71.9-62.4h217.6c35.9,0,66.8,26.8,71.9,62.4l4.2,29.4
			c0.6,4.3,4.3,7.3,8.4,7.3c0.4,0,0.8,0,1.2-0.1C455.2,192.3,458.5,188,457.8,183.3z"/>
	</g>
</g>
<g>
	<g>
		<path class="st0" d="M475.2,205.9c-7.8-7.7-13.8-16.9-17.8-27.3c-1-2.6-3.3-4.6-6-5.3c-2.7-0.6-5.6,0.1-7.7,2
			c-14.7,13.5-33.7,20.9-53.4,20.9H121.8c-19.8,0-38.8-7.4-53.4-20.9c-2.1-1.9-5-2.7-7.7-2c-2.8,0.6-5,2.6-6,5.3
			c-4,10.5-10,19.7-17.8,27.3C12.5,229.8-0.6,261.7,0,295.8c0.6,34.5,29.7,62.6,64.8,62.6h382.3c35.1,0,64.2-28.1,64.8-62.6
			C512.6,261.7,499.5,229.8,475.2,205.9z M447.2,341.3H64.8c-25.9,0-47.3-20.5-47.7-45.8c-0.5-29.4,10.7-56.9,31.7-77.4
			c6.8-6.7,12.5-14.4,17-22.8c16.3,11.7,35.8,18.1,56,18.1h268.5c20.2,0,39.7-6.4,56-18.1c4.5,8.5,10.2,16.1,17,22.8
			c20.9,20.6,32.2,48.1,31.7,77.4C494.5,320.8,473,341.3,447.2,341.3z"/>
	</g>
</g>
<g>
	<g>
		<path class="st0" d="M142.6,113.4c-3.3-3.3-8.7-3.3-12.1,0L104.9,139c-3.3,3.3-3.3,8.7,0,12.1c1.7,1.7,3.8,2.5,6,2.5
			s4.4-0.8,6-2.5l25.6-25.6C145.9,122.2,145.9,116.8,142.6,113.4z"/>
	</g>
</g>
<g>
	<g>
		<path class="st0" d="M185.2,104.9c-3.3-3.3-8.7-3.3-12.1,0l-64,64c-3.3,3.3-3.3,8.7,0,12.1c1.7,1.7,3.8,2.5,6,2.5s4.4-0.8,6-2.5
			l64-64C188.6,113.6,188.6,108.2,185.2,104.9z"/>
	</g>
</g>
<g>
	<g>
		<path class="st0" d="M349.9,145.1c-32.9,0-59.7,26.8-59.7,59.7c0,4.7,3.8,8.5,8.5,8.5s8.5-3.8,8.5-8.5c0-23.5,19.1-42.7,42.7-42.7
			s42.7,19.1,42.7,42.7c0,4.7,3.8,8.5,8.5,8.5s8.5-3.8,8.5-8.5C409.6,171.9,382.8,145.1,349.9,145.1z"/>
	</g>
</g>
<g>
	<g>
		<path class="st0" d="M102.4,273.1H34.1c-4.7,0-8.5,3.8-8.5,8.5v17.1c0,14.1,11.5,25.6,25.6,25.6h51.2c14.1,0,25.6-11.5,25.6-25.6
			C128,284.5,116.5,273.1,102.4,273.1z M102.4,307.2H51.2c-4.7,0-8.5-3.8-8.5-8.5v-8.5h59.7c4.7,0,8.5,3.8,8.5,8.5
			C110.9,303.4,107.1,307.2,102.4,307.2z"/>
	</g>
</g>
<g>
	<g>
		<path class="st0" d="M477.9,273.1h-68.3c-14.1,0-25.6,11.5-25.6,25.6s11.5,25.6,25.6,25.6h51.2c14.1,0,25.6-11.5,25.6-25.6v-17.1
			C486.4,276.9,482.6,273.1,477.9,273.1z M469.3,298.7c0,4.7-3.8,8.5-8.5,8.5h-51.2c-4.7,0-8.5-3.8-8.5-8.5s3.8-8.5,8.5-8.5h59.7
			V298.7L469.3,298.7z"/>
	</g>
</g>
<g>
	<g>
		<path class="st0" d="M324.3,341.3H179.2c-4.7,0-8.5,3.8-8.5,8.5V401c0,4.7,3.8,8.5,8.5,8.5h145.1c4.7,0,8.5-3.8,8.5-8.5v-51.2
			C332.8,345.2,329,341.3,324.3,341.3z M315.7,392.5h-128v-34.1h128V392.5z"/>
	</g>
</g>
<g>
	<g>
		<path class="st0" d="M337.1,264.5H174.9c-16.5,0-29.9,13.4-29.9,29.9s13.4,29.9,29.9,29.9H337c16.5,0,29.9-13.4,29.9-29.9
			S353.5,264.5,337.1,264.5z M337.1,307.2H174.9c-7.1,0-12.8-5.7-12.8-12.8c0-7.1,5.7-12.8,12.8-12.8H337c7.1,0,12.8,5.7,12.8,12.8
			C349.9,301.5,344.1,307.2,337.1,307.2z"/>
	</g>
</g>
<g>
	<g>
		<path class="st0" d="M204.8,264.5c-4.7,0-8.5,3.8-8.5,8.5v42.7c0,4.7,3.8,8.5,8.5,8.5s8.5-3.8,8.5-8.5V273
			C213.3,268.4,209.5,264.5,204.8,264.5z"/>
	</g>
</g>
<g>
	<g>
		<path class="st0" d="M256,264.5c-4.7,0-8.5,3.8-8.5,8.5v42.7c0,4.7,3.8,8.5,8.5,8.5c4.7,0,8.5-3.8,8.5-8.5V273
			C264.5,268.4,260.7,264.5,256,264.5z"/>
	</g>
</g>
<g>
	<g>
		<path class="st0" d="M307.2,264.5c-4.7,0-8.5,3.8-8.5,8.5v42.7c0,4.7,3.8,8.5,8.5,8.5s8.5-3.8,8.5-8.5V273
			C315.7,268.4,311.9,264.5,307.2,264.5z"/>
	</g>
</g>
</svg>
