<?xml version="1.0" encoding="utf-8"?>
<!-- Generator: Adobe Illustrator 22.0.0, SVG Export Plug-In . SVG Version: 6.00 Build 0)  -->
<svg version="1.1" id="Capa_1" xmlns="http://www.w3.org/2000/svg" xmlns:xlink="http://www.w3.org/1999/xlink" x="0px" y="0px"
	 viewBox="0 0 512 512" style="enable-background:new 0 0 512 512;" xml:space="preserve">
<style type="text/css">
	.st0{fill:#BB162A;}
</style>
<g>
	<g>
		<g>
			<path class="st0" d="M338.5,143.6h-270c-4.1,0-7.5,3.4-7.5,7.5s3.4,7.5,7.5,7.5h270c4.1,0,7.5-3.4,7.5-7.5
				C346,146.9,342.7,143.6,338.5,143.6z"/>
			<path class="st0" d="M8.3,430.7c4.1,0,7.5-3.4,7.5-7.5V33c0-9.9,8.1-18,18-18h339.6c9.9,0,18,8.1,18,18v36.7
				c0,4.1,3.4,7.5,7.5,7.5s7.5-3.4,7.5-7.5V33c0-18.2-14.8-33-33-33H33.8c-18.2,0-33,14.8-33,33v390.2
				C0.8,427.4,4.1,430.7,8.3,430.7z"/>
			<path class="st0" d="M338.5,201h-270c-4.1,0-7.5,3.4-7.5,7.5s3.4,7.5,7.5,7.5h270c4.1,0,7.5-3.4,7.5-7.5S342.7,201,338.5,201z"/>
			<path class="st0" d="M129.8,373.8c-14.3-7.8-43.9,5.5-54.6,15c-3.1,2.8-3.4,7.5-0.6,10.6s7.5,3.4,10.6,0.6
				c4.4-3.9,13.2-8.5,21.4-11.2c10.5-3.4,15.2-2.4,16.1-1.8c0.1,0.3,0.1,0.9,0,2c-1.2,7.9,0.6,13.5,5.2,16.6c2.1,1.4,4.5,2,7.1,2
				c9.4,0,22.5-8.2,41.4-20.1c3-1.9,6.1-3.9,9.3-5.8c3.5-2.2,4.6-6.8,2.4-10.3c-2.2-3.5-6.8-4.6-10.3-2.4c-3.2,2-6.3,3.9-9.4,5.9
				c-10,6.3-24.5,15.4-31,17.4c0-0.3,0.1-0.6,0.1-0.9C138.6,383.4,135.8,377.1,129.8,373.8z"/>
			<path class="st0" d="M506.9,176.3l-31.5-31.5c-2.8-2.8-6.5-4.3-10.4-4.3s-7.6,1.5-10.4,4.3L443,156.4l-1.6-1.6
				c-6-6-15.7-6-21.6,0l-13.5,13.5v-62.9c0-4.1-3.4-7.5-7.5-7.5s-7.5,3.4-7.5,7.5v77.9l-75,75H68.5c-4.1,0-7.5,3.4-7.5,7.5
				s3.4,7.5,7.5,7.5h232.7L249.7,325c-2.9,2.9-4.5,6.7-4.5,10.8c0,3.5,1.2,6.9,3.4,9.6c-8.6,9.8-16.3,21.9-20.9,32.9
				c-7.4,17.7-5.8,29.4-1.8,36.9l-6.1,6.1c-2.9,2.9-2.9,7.7,0,10.6c1.5,1.5,3.4,2.2,5.3,2.2s3.8-0.7,5.3-2.2l6.1-6.1
				c3.7,2,8.4,3.4,14.4,3.4c6.1,0,13.5-1.5,22.5-5.2c11-4.6,23.1-12.3,32.9-20.9c2.7,2.2,6.1,3.4,9.6,3.4c4.1,0,7.9-1.6,10.8-4.5
				l64.5-64.5V400c-9,7.7-20.3,11.8-32.2,11.8h-19.9c-18.2,0-33,14.8-33,33v19.9c0,11.9-4.2,23.2-11.8,32.2H33.8
				c-9.9,0-18-8.1-18-18v-20c0-4.1-3.4-7.5-7.5-7.5s-7.5,3.4-7.5,7.5v20c0,18.2,14.8,33,33,33h280.3c50.9,0,92.3-41.4,92.3-92.3
				v-97.2l63.1-63.1l0,0l0,0l27.5-27.5c6-6,6-15.7,0-21.6l-1.6-1.6l11.5-11.5C512.7,191.4,512.7,182.1,506.9,176.3z M314.1,497h-1.4
				c5.6-9.7,8.6-20.7,8.6-32.2v-19.9c0-9.9,8.1-18,18-18h19.9c11.5,0,22.5-3,32.2-8.6v1.4l0,0C391.3,462.3,356.7,497,314.1,497z
				 M397.6,198.2l16.4,16.4l-68.8,68.8L328.8,267L397.6,198.2z M241.1,410.7c-6.5-6.5-2.5-19.4,0.5-26.6c3.8-9.2,10.4-19.6,17.6-28
				l36.5,36.5C278.2,407.4,251,420.7,241.1,410.7z M316.2,391.5c0,0-0.1,0.1-0.2,0.1s-0.2-0.1-0.2-0.1L260.3,336
				c0,0-0.1-0.1-0.1-0.2s0.1-0.2,0.1-0.2l58-58l17.5,17.5c2.6,2.6,6.1,3.9,9.5,3.9s6.9-1.3,9.5-3.9l69.9-69.9l28.9,28.9L316.2,391.5
				z M486.4,221.3l-22.2,22.2l-55.9-55.9l22.2-22.2c0.1-0.1,0.1-0.1,0.2-0.1s0.2,0,0.2,0.1l55.5,55.5
				C486.5,221,486.5,221.2,486.4,221.3z M484.8,198.1L453.6,167l11.3-11.3l31.2,31.2L484.8,198.1z"/>
			<path class="st0" d="M170.5,430.2h-81c-4.1,0-7.5,3.4-7.5,7.5s3.4,7.5,7.5,7.5h81c4.1,0,7.5-3.4,7.5-7.5S174.7,430.2,170.5,430.2
				z"/>
			<path class="st0" d="M68.5,101.2h143.4c4.1,0,7.5-3.4,7.5-7.5s-3.4-7.5-7.5-7.5H68.5c-4.1,0-7.5,3.4-7.5,7.5
				C61,97.8,64.4,101.2,68.5,101.2z"/>
		</g>
	</g>
</g>
</svg>
