<?xml version="1.0" encoding="utf-8"?>
<!-- Generator: Adobe Illustrator 22.0.0, SVG Export Plug-In . SVG Version: 6.00 Build 0)  -->
<svg version="1.1" id="Layer_1" xmlns="http://www.w3.org/2000/svg" xmlns:xlink="http://www.w3.org/1999/xlink" x="0px" y="0px"
	 viewBox="0 0 512 512" style="enable-background:new 0 0 512 512;" xml:space="preserve">
<style type="text/css">
	.st0{fill:#BB162A;}
</style>
<g>
	<g>
		<g>
			<path class="st0" d="M307.2,204.7c0,4.7,3.8,8.5,8.5,8.5h85.4c4.7,0,8.5-3.8,8.5-8.5s-3.8-8.5-8.5-8.5h-85.4
				C311,196.1,307.2,200,307.2,204.7z"/>
			<path class="st0" d="M358.4,255.9c0,4.7,3.8,8.5,8.5,8.5h51.2c4.7,0,8.5-3.8,8.5-8.5c0-4.7-3.8-8.5-8.5-8.5H367
				C362.3,247.4,358.4,251.2,358.4,255.9z"/>
			<path class="st0" d="M247.5,247.4c-4.7,0-8.5,3.8-8.5,8.5c0,4.7,3.8,8.5,8.5,8.5h85.4c4.7,0,8.5-3.8,8.5-8.5
				c0-4.7-3.8-8.5-8.5-8.5H247.5z"/>
			<path class="st0" d="M290.1,460.8H127.9c-14.1,0-25.6-11.5-25.6-25.6V42.5c0-4.7-3.8-8.5-8.5-8.5c-23.5,0-42.7,19.1-42.7,42.7
				c0,4.7,3.8,8.5,8.5,8.5s8.5-3.8,8.5-8.5c0-11.1,7.1-20.6,17.1-24.2v382.7c0,23.5,19.1,42.7,42.7,42.7h162.2
				c4.7,0,8.5-3.8,8.5-8.5C298.7,464.6,294.9,460.8,290.1,460.8z"/>
			<path class="st0" d="M162.1,213.2h119.5c4.7,0,8.5-3.8,8.5-8.5s-3.8-8.5-8.5-8.5H162.1c-4.7,0-8.5,3.8-8.5,8.5
				S157.4,213.2,162.1,213.2z"/>
			<path class="st0" d="M418.2,0H93.8C51.5,0,17.1,34.3,17,76.5v0.1v0.1v0.1v0.1c0.1,27.2,14.8,52.6,38.4,66.2
				c4.1,2.4,9.3,1,11.7-3.1c2.4-4.1,1-9.3-3.1-11.7C45.5,117.7,34.1,98,34,76.7C34.1,43.8,60.8,17,93.8,17h324.4
				c32.9,0,59.8,26.8,59.8,59.8v358.5c0,4.3-1.2,8.7-3.5,12.5c-2.4,4.1-1,9.3,3,11.7c1.4,0.8,2.9,1.2,4.3,1.2c2.9,0,5.8-1.5,7.4-4.2
				c3.8-6.5,5.8-13.8,5.8-21.2V76.8C495,34.5,460.6,0,418.2,0z"/>
			<path class="st0" d="M443.8,392.5c0-28.2-23-51.2-51.2-51.2s-51.2,23-51.2,51.2s23,51.2,51.2,51.2S443.8,420.7,443.8,392.5z
				 M392.6,426.6c-18.8,0-34.1-15.3-34.1-34.1s15.3-34.1,34.1-34.1c18.8,0,34.1,15.3,34.1,34.1S411.4,426.6,392.6,426.6z"/>
			<path class="st0" d="M377.2,452.3c-4.1-2.4-9.3-1-11.7,3.1l-18.4,31.9l-2.9-4.4c-1.5-2.2-3.9-3.7-6.6-3.8l-5.3-0.3l18.7-32.4
				c2.4-4.1,1-9.3-3.1-11.7c-4.1-2.4-9.3-1-11.7,3.1l-25.6,44.3c-1.5,2.6-1.5,5.7-0.1,8.3c1.4,2.6,4,4.3,7,4.5l14.8,0.9l8.2,12.4
				c1.6,2.4,4.3,3.8,7.1,3.8h0.3c2.9-0.1,5.7-1.7,7.1-4.3l25.3-43.8C382.7,459.8,381.3,454.6,377.2,452.3z"/>
			<path class="st0" d="M449.2,438.2c-2.4-4.1-7.6-5.5-11.7-3.1s-5.5,7.6-3.1,11.7l18.5,32l-5.3,0.3c-2.7,0.2-5.1,1.6-6.6,3.8
				l-2.9,4.4l-18.3-31.7c-2.4-4.1-7.6-5.5-11.7-3.1s-5.5,7.6-3.1,11.7l25.2,43.6c1.5,2.6,4.2,4.2,7.1,4.3h0.3c2.9,0,5.5-1.4,7.1-3.8
				l8.2-12.4l14.8-0.9c3-0.2,5.6-1.9,7-4.5s1.3-5.8-0.1-8.3L449.2,438.2z"/>
			<path class="st0" d="M162.1,264.4h51.2c4.7,0,8.5-3.8,8.5-8.5c0-4.7-3.8-8.5-8.5-8.5h-51.2c-4.7,0-8.5,3.8-8.5,8.5
				C153.6,260.6,157.4,264.4,162.1,264.4z"/>
			<path class="st0" d="M162.1,315.7h102.4c4.7,0,8.5-3.8,8.5-8.5s-3.8-8.5-8.5-8.5H162.1c-4.7,0-8.5,3.8-8.5,8.5
				S157.4,315.7,162.1,315.7z"/>
			<path class="st0" d="M163,421.9c2.1,4.2,7.2,5.9,11.4,3.8s5.9-7.2,3.8-11.5c-8.5-16.9-10.3-32.1-5.1-40.6
				c2.8-4.5,7.7-6.8,14.5-6.8c4.1,0,5.6,1.4,6.5,2.8c6.4,9.2,0.3,37.1-6,54c-1.4,3.8,0,8,3.4,10.2s7.8,1.7,10.7-1.1
				c3.6-3.6,7.6-7.3,11-10.2v4.2c0,3.4,2.1,6.6,5.3,7.9s6.9,0.6,9.3-1.8c3.9-3.9,8.4-7.7,12.2-10.5c-0.1,0.2-0.2,0.4-0.3,0.6
				c-1.3,2.6-1.2,5.8,0.4,8.3c1.6,2.5,4.3,4,7.3,4h34.1c4.7,0,8.5-3.8,8.5-8.5s-3.8-8.5-8.5-8.5h-22.2c0.7-4.1,0.5-8.2-1.5-11.5
				c-2.2-3.5-6-5.5-10.4-5.5c-5.3,0-11.5,3.2-17.1,7.2c-0.4-3.7-2.6-6.8-6-8.2c-2.3-0.9-5.2-2.2-12.3,2.1
				c2.8-14.7,3.6-31.7-3.7-42.2c-3.2-4.6-9.4-10.1-20.6-10.1c-12.8,0-23.1,5.3-29.1,14.9C150.1,378.5,151.7,399.4,163,421.9z"/>
			<path class="st0" d="M392.6,307.1c0-4.7-3.8-8.5-8.5-8.5h-85.4c-4.7,0-8.5,3.8-8.5,8.5s3.8,8.5,8.5,8.5h85.4
				C388.8,315.7,392.6,311.8,392.6,307.1z"/>
		</g>
	</g>
</g>
<g>
	<path class="st0" d="M154.6,69.3h83.1v95.2h-21.8V88.2h-39.5v76.3h-21.8V69.3z"/>
	<path class="st0" d="M276.8,88.2h-28.1V69.3h78.1v18.9h-28.1v76.3h-21.8V88.2H276.8z"/>
	<path class="st0" d="M328.5,116.9c0-28.8,20.4-49.7,49-49.7c20,0,34.4,8.8,43,22.5l-16.1,12.2c-5.9-9-13.3-14.6-26.4-14.6
		c-16.7,0-26.9,12.7-26.9,29.5s10.2,29.5,26.9,29.5c13.2,0,20.6-5.6,26.4-14.6l16.1,12.2c-8.5,13.7-23,22.5-43,22.5
		C349,166.5,328.5,145.7,328.5,116.9z"/>
</g>
</svg>
