<?xml version="1.0" encoding="utf-8"?>
<!-- Generator: Adobe Illustrator 22.0.0, SVG Export Plug-In . SVG Version: 6.00 Build 0)  -->
<svg version="1.1" id="Layer_1" xmlns="http://www.w3.org/2000/svg" xmlns:xlink="http://www.w3.org/1999/xlink" x="0px" y="0px"
	 viewBox="0 0 512 512" style="enable-background:new 0 0 512 512;" xml:space="preserve">
<style type="text/css">
	.st0{fill:#BB162A;}
</style>
<g>
	<g>
		<g>
			<path class="st0" d="M469,0H332.4c-26.4,0-46.1,8.4-65.8,28.1c-3.3,3.3-3.3,8.7,0,12.1c3.3,3.3,8.7,3.3,12.1,0
				c16.6-16.6,31.7-23.1,53.7-23.1H469c14.1,0,25.6,11.5,25.6,25.6v136.6c0,22-6.5,37.1-23.1,53.7L218,486.8
				c-9.7,9.7-26.6,9.7-36.2,0L24.9,329.9c-4.8-4.8-7.5-11.3-7.5-18.1c0-6.8,2.7-13.3,7.5-18.1L254,64.9c3.5,0.9,7.1,1.8,10.7,2.8
				c34.7,9.3,62.1,18.9,82.6,27.5c-4,7.4-6.3,15.8-6.3,24.3c0,28.2,23,51.2,51.2,51.2s51.2-23,51.2-51.2s-23-51.2-51.2-51.2
				c-4.7,0-8.5,3.8-8.5,8.5s3.8,8.5,8.5,8.5c18.8,0,34.1,15.3,34.1,34.1s-15.3,34.1-34.1,34.1c-18.8,0-34.1-15.3-34.1-34.1
				c0-6.1,1.7-12.1,4.8-17.4c14.8,7.1,24,13,27.7,16.9c-1.6,0.4-4,0.9-7.6,1.3c-4.7,0.4-8.2,4.6-7.8,9.3c0.4,4.4,4.1,7.8,8.5,7.8
				c0.2,0,0.5,0,0.8,0c5.2-0.5,21.2-1.9,24.3-13.3c8.4-31.4-114.8-66.1-139.6-72.8c-38-10.2-74.4-17.1-102.6-19.6
				c-34.7-3-51.6,0.9-54.7,12.8c-1.5,5.7-5.6,20.8,63.6,48.1c4.4,1.7,9.3-0.4,11.1-4.8c1.7-4.4-0.4-9.3-4.8-11.1
				c-33.4-13.2-47.3-22.9-51.7-27.4c10.5-3.1,46.5-2.2,104.5,11L12.8,281.6c-8.1,8.1-12.5,18.8-12.5,30.2c0,11.4,4.4,22.1,12.5,30.2
				l156.9,156.9c8.1,8.1,18.8,12.5,30.2,12.5s22.1-4.4,30.2-12.5L483.6,245c19.7-19.7,28.1-39.4,28.1-65.8V42.7
				C511.7,19.1,492.6,0,469,0z"/>
			<path class="st0" d="M443.2,312.2c-4.1-2.4-9.3-1-11.7,3l-97.8,166.9c-7.1,12.2-22.7,16.4-34.6,9.6L280,479.4
				c-4-2.6-9.2-1.4-11.8,2.5c-2.6,4-1.4,9.2,2.5,11.8l19.4,12.6c6.7,3.9,14,5.7,21.3,5.7c14.8,0,29.1-7.6,37-21.3l97.8-166.8
				C448.6,319.8,447.3,314.6,443.2,312.2z"/>
			<path class="st0" d="M204.4,247.5V367c0,4.7,3.8,8.5,8.5,8.5s8.5-3.8,8.5-8.5V247.5c0-4.7-3.8-8.5-8.5-8.5
				S204.4,242.8,204.4,247.5z"/>
			<path class="st0" d="M255.6,273.1c0,9.4,7.7,17.1,17.1,17.1s17.1-7.7,17.1-17.1s-7.7-17.1-17.1-17.1S255.6,263.7,255.6,273.1z"/>
			<path class="st0" d="M136.1,324.4c0,9.4,7.7,17.1,17.1,17.1c9.4,0,17.1-7.7,17.1-17.1s-7.7-17.1-17.1-17.1
				S136.1,314.9,136.1,324.4z"/>
		</g>
	</g>
</g>
</svg>
