<?xml version="1.0" encoding="utf-8"?>
<!-- Generator: Adobe Illustrator 22.0.0, SVG Export Plug-In . SVG Version: 6.00 Build 0)  -->
<svg version="1.1" id="Capa_1" xmlns="http://www.w3.org/2000/svg" xmlns:xlink="http://www.w3.org/1999/xlink" x="0px" y="0px"
	 viewBox="0 0 512 512" style="enable-background:new 0 0 512 512;" xml:space="preserve">
<style type="text/css">
	.st0{fill:#BB162A;}
</style>
<g>
	<g>
		<path class="st0" d="M505.8,254.7c10.2-16.6,7.7-37.8-6.3-51.6l-20-19.7c-4.5-4.5-6.9-10.7-6.4-17l2-28.1
			c1.4-19.6-10.8-37.2-29.6-42.9l-26.4-8c-6.1-1.8-11.1-6.3-13.6-12.1l-11.1-25.5c-7.7-17.8-27.2-28.1-46.3-24.3l-26.8,5.3
			c-6.3,1.2-12.8-0.4-17.8-4.4L282.2,9.2C267-3,245-3,229.8,9.2l-21.3,17.2c-5,4-11.5,5.6-17.8,4.4l-26.8-5.3
			c-19.1-3.7-38.5,6.5-46.3,24.3l-11.1,25.5C104,81.2,99,85.6,92.9,87.4l-26.4,8c-18.8,5.7-30.9,23.3-29.6,42.9l2,28.1
			c0.5,6.3-1.9,12.5-6.4,17l-20,19.7c-13.9,13.8-16.5,35-6.3,51.6l14.8,24c3.3,5.4,4.1,12,2.2,18l-8.6,26.9
			c-6,18.6,1.6,38.6,18.4,48.6l23.9,14.2c5.5,3.3,9.2,8.7,10.3,15l4.7,27.6c3.3,19.4,19.4,33.7,39,34.6l27.4,1.4
			c6.4,0.3,12.3,3.4,16.2,8.5l16.7,22c8.1,10.6,20.6,16.4,33.3,16.4c5.9,0,11.9-1.3,17.5-3.9l24.8-11.6c5.8-2.7,12.5-2.7,18.4,0
			L290,508c17.7,8.2,39,3,50.8-12.6l16.7-22c3.9-5.1,9.8-8.2,16.2-8.5l27.4-1.4c19.7-1,35.7-15.2,39-34.6l4.7-27.6
			c1.1-6.3,4.8-11.8,10.3-15l23.9-14.2c16.8-10,24.4-30,18.4-48.6l-8.6-26.9c-1.9-6-1.1-12.6,2.2-18L505.8,254.7z M474,268.2
			c-6.4,10.4-7.9,23-4.2,34.6l8.6,26.9c3.1,9.7-0.8,20.1-9.6,25.3l-23.9,14.2c-10.5,6.3-17.8,16.8-19.8,28.8l-4.7,27.6
			c-1.7,10.1-10.1,17.5-20.3,18l-27.4,1.4c-12.3,0.6-23.7,6.6-31.1,16.4l-16.7,22c-6.1,8.1-17.3,10.8-26.5,6.5l-24.8-11.6
			c-11.2-5.2-24.1-5.2-35.3,0L213.6,490c-9.2,4.3-20.3,1.5-26.5-6.5l-16.7-22c-7.5-9.8-18.8-15.8-31.1-16.4l-27.4-1.4
			c-10.2-0.5-18.6-7.9-20.3-18l-4.7-27.6c-2.1-12.1-9.3-22.6-19.8-28.8l-24-14.3c-8.8-5.2-12.7-15.6-9.6-25.3l8.6-26.9
			c3.7-11.6,2.2-24.2-4.2-34.6l-14.8-24c-5.3-8.7-4-19.7,3.3-26.8l20-19.7c8.7-8.6,13.2-20.5,12.3-32.7l-2-28.1
			c-0.7-10.2,5.6-19.4,15.4-22.3l26.4-8c11.8-3.5,21.3-12.1,26.2-23.3l11.1-25.5c3.5-8,11.5-13.1,20-13.1c1.4,0,2.7,0.1,4.1,0.4
			l26.8,5.3c12.1,2.4,24.6-0.7,34.2-8.5l21.3-17.2c7.9-6.4,19.4-6.4,27.3,0L291,42c9.6,7.8,22.1,10.9,34.2,8.5l26.8-5.3
			c9.9-2,20.1,3.4,24.1,12.7l11.1,25.5c4.9,11.3,14.4,19.8,26.2,23.3l26.4,8c9.8,2.9,16.1,12.1,15.4,22.3l-2,28.1
			c-0.9,12.2,3.6,24.1,12.3,32.7l20,19.7c7.2,7.1,8.6,18.2,3.3,26.8L474,268.2z"/>
	</g>
</g>
<g>
	<g>
		<path class="st0" d="M136,121.6c-3.9-3.9-10.2-4-14.1-0.1l-0.1,0.1c-3.9,3.9-4,10.2-0.1,14.1c2,2,4.5,3,7.1,3c2.5,0,5.1-1,7-2.9
			l0.1-0.1C139.9,131.8,139.9,125.5,136,121.6z"/>
	</g>
</g>
<g>
	<g>
		<path class="st0" d="M442.7,221.1c-7-37.8-25.2-72.2-52.4-99.4C328.8,60.2,233.7,48.2,159,92.6c-4.7,2.8-6.3,9-3.5,13.7
			s9,6.3,13.7,3.5c66.8-39.7,151.9-29,206.9,26c49.2,49.2,63.5,122.4,36.4,186.5c-2.2,5.1,0.2,11,5.3,13.1c1.3,0.5,2.6,0.8,3.9,0.8
			c3.9,0,7.6-2.3,9.2-6.1C445.5,295.7,449.6,258,442.7,221.1z"/>
	</g>
</g>
<g>
	<g>
		<path class="st0" d="M390.4,376.2c-3.9-3.9-10.2-4-14.1-0.1l-0.1,0.1c-3.9,3.9-4,10.2-0.1,14.1c2,2,4.5,3,7.1,3c2.5,0,5.1-1,7-2.9
			l0.1-0.1C394.2,386.5,394.2,380.1,390.4,376.2z"/>
	</g>
</g>
<g>
	<g>
		<path class="st0" d="M356.4,405.7c-2.8-4.7-9-6.3-13.7-3.5c-27,16-56.9,23.8-86.7,23.8c-43.9,0-87.5-17.1-120.3-49.9
			C86.6,327,72.3,253.8,99.4,189.7c2.2-5.1-0.2-11-5.3-13.1c-5.1-2.1-11,0.2-13.1,5.3c-14.6,34.4-18.6,72.1-11.8,109
			c7,37.8,25.2,72.2,52.4,99.4C158.4,427,207,446,256.1,446c33.2,0,66.7-8.7,96.9-26.6C357.7,416.6,359.3,410.4,356.4,405.7z"/>
	</g>
</g>
<g>
	<g>
		<path class="st0" d="M297.3,174.2c-4.8-2.7-10.9-1-13.6,3.8L191,342.1c-2.7,4.8-1,10.9,3.8,13.6c1.6,0.9,3.2,1.3,4.9,1.3
			c3.5,0,6.9-1.8,8.7-5.1l92.7-164.2C303.8,183,302.1,176.9,297.3,174.2z"/>
	</g>
</g>
<g>
	<g>
		<path class="st0" d="M316.2,280.4c-23.2,0-42,18.8-42,42s18.8,42,42,42s42-18.8,42-42S339.4,280.4,316.2,280.4z M316.2,344.4
			c-12.1,0-22-9.9-22-22s9.9-22,22-22s22,9.9,22,22S328.4,344.4,316.2,344.4z"/>
	</g>
</g>
<g>
	<g>
		<path class="st0" d="M195.8,147.6c-23.2,0-42,18.8-42,42s18.8,42,42,42s42-18.8,42-42S218.9,147.6,195.8,147.6z M195.8,211.6
			c-12.1,0-22-9.9-22-22s9.9-22,22-22s22,9.9,22,22S207.9,211.6,195.8,211.6z"/>
	</g>
</g>
</svg>
